<svg xmlns="http://www.w3.org/2000/svg" xmlns:xlink="http://www.w3.org/1999/xlink" width="480" zoomAndPan="magnify" viewBox="0 0 360 187.499995" height="250" preserveAspectRatio="xMidYMid meet" version="1.0"><defs><g/><clipPath id="555a30759c"><path d="M 20 12.886719 L 100 12.886719 L 100 95 L 20 95 Z M 20 12.886719 " clip-rule="nonzero"/></clipPath><clipPath id="f979f60c20"><path d="M 16 12.886719 L 82 12.886719 L 82 39 L 16 39 Z M 16 12.886719 " clip-rule="nonzero"/></clipPath><clipPath id="d69cffd229"><path d="M 24 12.886719 L 100 12.886719 L 100 93 L 24 93 Z M 24 12.886719 " clip-rule="nonzero"/></clipPath><clipPath id="11988459e6"><path d="M 11.355469 48 L 26 48 L 26 181.9375 L 11.355469 181.9375 Z M 11.355469 48 " clip-rule="nonzero"/></clipPath><clipPath id="1c128dc428"><path d="M 11.355469 47 L 27 47 L 27 181.9375 L 11.355469 181.9375 Z M 11.355469 47 " clip-rule="nonzero"/></clipPath><clipPath id="c5b0b3df39"><path d="M 11.355469 156 L 27 156 L 27 181.9375 L 11.355469 181.9375 Z M 11.355469 156 " clip-rule="nonzero"/></clipPath><clipPath id="ebf6df3f61"><path d="M 25 46 L 157 46 L 157 181.9375 L 25 181.9375 Z M 25 46 " clip-rule="nonzero"/></clipPath><clipPath id="8f1bf64c87"><path d="M 24 45 L 157.214844 45 L 157.214844 181.9375 L 24 181.9375 Z M 24 45 " clip-rule="nonzero"/></clipPath></defs><path fill="#6b80d6" d="M 20.789062 37.421875 L 72.40625 14.984375 L 81.1875 13.414062 L 99.28125 68.285156 L 38.214844 93.578125 Z M 20.789062 37.421875 " fill-opacity="1" fill-rule="nonzero"/><g clip-path="url(#555a30759c)"><path fill="#19055b" d="M 38.214844 94.082031 C 38.144531 94.082031 38.070312 94.066406 38 94.035156 C 37.875 93.972656 37.777344 93.863281 37.734375 93.726562 L 20.304688 37.570312 C 20.230469 37.324219 20.351562 37.0625 20.585938 36.957031 L 72.207031 14.523438 C 72.242188 14.507812 72.28125 14.496094 72.320312 14.488281 L 81.101562 12.917969 C 81.347656 12.871094 81.589844 13.019531 81.667969 13.257812 L 99.761719 68.128906 C 99.84375 68.378906 99.71875 68.648438 99.476562 68.75 L 38.410156 94.042969 C 38.347656 94.070312 38.28125 94.082031 38.214844 94.082031 Z M 21.402344 37.703125 L 38.535156 92.902344 L 98.65625 68 L 80.847656 13.988281 L 72.554688 15.472656 Z M 21.402344 37.703125 " fill-opacity="1" fill-rule="nonzero"/></g><path fill="#19055b" d="M 82.988281 18.867188 L 82.714844 18.042969 L 81.3125 13.792969 L 81.1875 13.414062 L 80.886719 13.46875 L 80.328125 13.566406 L 62.070312 72.460938 C 61.6875 73.695312 62.332031 75.039062 63.507812 75.460938 C 63.75 75.546875 64.003906 75.589844 64.257812 75.589844 C 65.257812 75.589844 66.136719 74.925781 66.445312 73.933594 L 83.257812 19.691406 Z M 82.988281 18.867188 " fill-opacity="1" fill-rule="nonzero"/><path fill="#19055b" d="M 43.691406 27.464844 L 43.082031 27.730469 L 39.941406 29.097656 L 39.332031 29.359375 L 38.71875 29.625 L 28.550781 62.433594 L 28.8125 63.285156 L 29.078125 64.136719 L 30.4375 68.515625 L 30.703125 69.367188 L 30.964844 70.21875 L 44.300781 27.199219 Z M 43.691406 27.464844 " fill-opacity="1" fill-rule="nonzero"/><path fill="#19055b" d="M 57.804688 21.332031 L 57.191406 21.597656 L 54.050781 22.964844 L 53.441406 23.226562 L 52.832031 23.492188 L 37.824219 71.898438 C 37.441406 73.132812 38.089844 74.476562 39.265625 74.898438 C 39.507812 74.984375 39.757812 75.027344 40.011719 75.027344 C 41.011719 75.027344 41.890625 74.359375 42.199219 73.371094 L 58.414062 21.066406 Z M 57.804688 21.332031 " fill-opacity="1" fill-rule="nonzero"/><path fill="#19055b" d="M 72.40625 14.984375 L 71.914062 15.199219 L 71.304688 15.464844 L 68.164062 16.832031 L 67.554688 17.09375 L 66.941406 17.359375 L 49.949219 72.179688 C 49.566406 73.414062 50.210938 74.757812 51.386719 75.179688 C 51.628906 75.265625 51.878906 75.308594 52.132812 75.308594 C 53.136719 75.308594 54.015625 74.640625 54.320312 73.652344 L 72.515625 14.964844 Z M 72.40625 14.984375 " fill-opacity="1" fill-rule="nonzero"/><path fill="#ffffff" d="M 39.941406 29.097656 L 29.078125 64.136719 L 30.4375 68.515625 L 43.082031 27.730469 Z M 39.941406 29.097656 " fill-opacity="1" fill-rule="nonzero"/><path fill="#ffffff" d="M 39.605469 73.949219 C 39.738281 73.996094 39.875 74.019531 40.011719 74.019531 C 40.550781 74.019531 41.054688 73.652344 41.234375 73.070312 L 57.191406 21.597656 L 54.050781 22.964844 L 38.789062 72.195312 C 38.5625 72.921875 38.929688 73.707031 39.605469 73.949219 Z M 39.605469 73.949219 " fill-opacity="1" fill-rule="nonzero"/><path fill="#ffffff" d="M 51.726562 74.230469 C 51.863281 74.277344 52 74.300781 52.132812 74.300781 C 52.675781 74.300781 53.175781 73.933594 53.355469 73.351562 L 71.304688 15.464844 L 68.164062 16.832031 L 50.910156 72.476562 C 50.6875 73.203125 51.050781 73.988281 51.726562 74.230469 Z M 51.726562 74.230469 " fill-opacity="1" fill-rule="nonzero"/><path fill="#ffffff" d="M 63.847656 74.511719 C 63.984375 74.558594 64.121094 74.582031 64.257812 74.582031 C 64.796875 74.582031 65.300781 74.214844 65.480469 73.636719 L 82.714844 18.042969 L 81.3125 13.792969 L 63.035156 72.761719 C 62.808594 73.484375 63.175781 74.269531 63.847656 74.511719 Z M 63.847656 74.511719 " fill-opacity="1" fill-rule="nonzero"/><path fill="#5774eb" d="M 81.1875 13.414062 L 25.371094 37.675781 L 17.265625 36.761719 L 68.882812 14.328125 Z M 81.1875 13.414062 " fill-opacity="1" fill-rule="nonzero"/><g clip-path="url(#f979f60c20)"><path fill="#19055b" d="M 25.371094 38.179688 C 25.351562 38.179688 25.335938 38.179688 25.316406 38.179688 L 17.207031 37.265625 C 16.980469 37.238281 16.800781 37.0625 16.765625 36.835938 C 16.730469 36.613281 16.855469 36.390625 17.0625 36.300781 L 68.683594 13.867188 C 68.734375 13.84375 68.789062 13.832031 68.847656 13.824219 L 81.152344 12.910156 C 81.40625 12.894531 81.621094 13.054688 81.679688 13.292969 C 81.738281 13.53125 81.617188 13.777344 81.390625 13.875 L 25.574219 38.140625 C 25.507812 38.167969 25.441406 38.179688 25.371094 38.179688 Z M 19.195312 36.472656 L 25.292969 37.160156 L 78.261719 14.136719 L 69.007812 14.824219 Z M 19.195312 36.472656 " fill-opacity="1" fill-rule="nonzero"/></g><g clip-path="url(#d69cffd229)"><path fill="#19055b" d="M 42.539062 92.289062 C 42.46875 92.289062 42.394531 92.273438 42.328125 92.242188 C 42.199219 92.183594 42.101562 92.074219 42.058594 91.9375 L 24.890625 37.828125 C 24.8125 37.582031 24.933594 37.320312 25.171875 37.214844 L 80.988281 12.953125 C 81.117188 12.894531 81.265625 12.894531 81.394531 12.953125 C 81.523438 13.011719 81.625 13.121094 81.667969 13.257812 L 99.761719 68.128906 C 99.84375 68.378906 99.71875 68.648438 99.476562 68.75 L 42.734375 92.253906 C 42.671875 92.277344 42.605469 92.289062 42.539062 92.289062 Z M 25.992188 37.957031 L 42.855469 91.109375 L 98.65625 68 L 80.882812 14.097656 Z M 25.992188 37.957031 " fill-opacity="1" fill-rule="nonzero"/></g><path fill="#5774eb" d="M 25.371094 37.675781 L 42.539062 91.785156 L 34.691406 92.921875 L 17.265625 36.761719 Z M 25.371094 37.675781 " fill-opacity="1" fill-rule="nonzero"/><path fill="#19055b" d="M 34.691406 93.425781 C 34.472656 93.425781 34.277344 93.28125 34.210938 93.070312 L 16.78125 36.914062 C 16.730469 36.75 16.765625 36.574219 16.875 36.441406 C 16.984375 36.3125 17.152344 36.242188 17.320312 36.261719 L 25.429688 37.175781 C 25.625 37.199219 25.792969 37.335938 25.851562 37.527344 L 43.023438 91.632812 C 43.066406 91.777344 43.046875 91.929688 42.96875 92.054688 C 42.890625 92.179688 42.757812 92.265625 42.613281 92.285156 L 34.765625 93.417969 C 34.742188 93.421875 34.714844 93.425781 34.691406 93.425781 Z M 17.972656 37.351562 L 35.046875 92.359375 L 41.878906 91.371094 L 24.988281 38.140625 Z M 17.972656 37.351562 " fill-opacity="1" fill-rule="nonzero"/><path fill="#ffffff" d="M 77.003906 22.3125 L 81.34375 22.3125 L 104.640625 25.21875 L 100.949219 66.753906 L 72.378906 66.753906 Z M 77.003906 22.3125 " fill-opacity="1" fill-rule="nonzero"/><path fill="#19055b" d="M 100.949219 67.257812 L 72.378906 67.257812 C 72.234375 67.257812 72.097656 67.195312 72.003906 67.089844 C 71.90625 66.984375 71.859375 66.84375 71.875 66.703125 L 76.503906 22.261719 C 76.53125 22.003906 76.746094 21.808594 77.003906 21.808594 L 81.34375 21.808594 C 81.367188 21.808594 81.386719 21.8125 81.40625 21.816406 L 104.703125 24.71875 C 104.972656 24.753906 105.167969 24.996094 105.144531 25.265625 L 101.453125 66.796875 C 101.429688 67.058594 101.210938 67.257812 100.949219 67.257812 Z M 72.9375 66.25 L 100.488281 66.25 L 104.097656 25.660156 L 81.3125 22.820312 L 77.460938 22.820312 Z M 72.9375 66.25 " fill-opacity="1" fill-rule="nonzero"/><path fill="#5774eb" d="M 81.34375 22.3125 L 77.121094 66.753906 L 72.378906 66.753906 L 77.003906 22.3125 Z M 81.34375 22.3125 " fill-opacity="1" fill-rule="nonzero"/><path fill="#19055b" d="M 77.121094 67.257812 L 72.378906 67.257812 C 72.234375 67.257812 72.097656 67.195312 72.003906 67.089844 C 71.90625 66.984375 71.859375 66.84375 71.875 66.703125 L 76.503906 22.261719 C 76.53125 22.003906 76.746094 21.808594 77.003906 21.808594 L 81.34375 21.808594 C 81.488281 21.808594 81.621094 21.871094 81.71875 21.976562 C 81.8125 22.082031 81.859375 22.222656 81.847656 22.363281 L 77.625 66.800781 C 77.597656 67.058594 77.382812 67.257812 77.121094 67.257812 Z M 72.9375 66.25 L 76.664062 66.25 L 80.789062 22.820312 L 77.460938 22.820312 Z M 72.9375 66.25 " fill-opacity="1" fill-rule="nonzero"/><path fill="#5774eb" d="M 92.082031 23.652344 L 87.523438 66.753906 L 91.410156 66.753906 L 95.917969 24.132812 Z M 92.082031 23.652344 " fill-opacity="1" fill-rule="nonzero"/><path fill="#19055b" d="M 91.410156 67.257812 L 87.523438 67.257812 C 87.378906 67.257812 87.242188 67.195312 87.148438 67.089844 C 87.050781 66.984375 87.003906 66.84375 87.019531 66.699219 L 91.578125 23.601562 C 91.59375 23.464844 91.660156 23.34375 91.765625 23.257812 C 91.875 23.175781 92.011719 23.136719 92.144531 23.152344 L 95.980469 23.632812 C 96.253906 23.664062 96.449219 23.910156 96.417969 24.183594 L 91.910156 66.808594 C 91.882812 67.0625 91.667969 67.257812 91.410156 67.257812 Z M 88.082031 66.25 L 90.957031 66.25 L 95.363281 24.570312 L 92.527344 24.21875 Z M 88.082031 66.25 " fill-opacity="1" fill-rule="nonzero"/><path fill="#ffffff" d="M 151.132812 23.085938 C 150.980469 22.757812 150.757812 22.46875 150.503906 22.210938 C 149.035156 20.722656 146.035156 17.976562 144.101562 16.828125 C 142.253906 15.730469 138.007812 18.878906 136.484375 20.167969 C 133.539062 22.65625 131.894531 27.390625 131.894531 27.390625 L 133.492188 30.480469 C 140.925781 29.148438 143.0625 27.023438 145.4375 24.714844 C 148.527344 21.707031 151.132812 23.085938 151.132812 23.085938 Z M 151.132812 23.085938 " fill-opacity="1" fill-rule="nonzero"/><path fill="#19055b" d="M 133.492188 30.984375 C 133.304688 30.984375 133.128906 30.882812 133.042969 30.710938 L 131.445312 27.621094 C 131.382812 27.5 131.371094 27.355469 131.417969 27.226562 C 131.488281 27.027344 133.144531 22.332031 136.15625 19.78125 C 137.113281 18.972656 142.011719 15 144.359375 16.394531 C 146.324219 17.558594 149.324219 20.300781 150.863281 21.855469 C 151.1875 22.1875 151.425781 22.519531 151.589844 22.871094 C 151.679688 23.070312 151.636719 23.300781 151.480469 23.449219 C 151.324219 23.597656 151.089844 23.628906 150.898438 23.53125 C 150.796875 23.480469 148.550781 22.390625 145.789062 25.074219 L 145.738281 25.125 C 143.359375 27.441406 141.109375 29.625 133.582031 30.976562 C 133.550781 30.980469 133.519531 30.984375 133.492188 30.984375 Z M 132.445312 27.359375 L 133.769531 29.917969 C 140.699219 28.621094 142.710938 26.664062 145.035156 24.402344 L 145.085938 24.351562 C 146.960938 22.53125 148.6875 22.199219 149.847656 22.269531 C 148.324219 20.761719 145.59375 18.300781 143.84375 17.261719 C 142.488281 16.457031 138.894531 18.789062 136.808594 20.550781 C 134.34375 22.640625 132.792969 26.445312 132.445312 27.359375 Z M 132.445312 27.359375 " fill-opacity="1" fill-rule="nonzero"/><path fill="#6b80d6" d="M 151.132812 23.085938 C 151.132812 23.085938 148.527344 21.707031 145.4375 24.714844 C 143.0625 27.023438 140.925781 29.148438 133.492188 30.480469 C 141.613281 31.664062 145.8125 30.480469 148.207031 28.488281 C 151.296875 25.917969 151.675781 24.253906 151.132812 23.085938 Z M 151.132812 23.085938 " fill-opacity="1" fill-rule="nonzero"/><path fill="#19055b" d="M 139.316406 31.453125 C 137.550781 31.453125 135.585938 31.296875 133.417969 30.980469 C 133.171875 30.945312 132.992188 30.734375 132.988281 30.488281 C 132.984375 30.242188 133.160156 30.027344 133.402344 29.984375 C 140.628906 28.6875 142.667969 26.703125 145.035156 24.402344 L 145.085938 24.351562 C 148.402344 21.128906 151.25 22.574219 151.367188 22.640625 C 151.464844 22.691406 151.542969 22.773438 151.589844 22.871094 C 152.367188 24.550781 151.367188 26.511719 148.53125 28.875 C 146.460938 30.597656 143.421875 31.453125 139.316406 31.453125 Z M 136.574219 30.328125 C 141.855469 30.761719 145.570312 30.027344 147.882812 28.101562 C 150.175781 26.195312 151.136719 24.636719 150.742188 23.464844 C 150.175781 23.25 148.175781 22.753906 145.789062 25.074219 L 145.738281 25.125 C 143.707031 27.101562 141.773438 28.980469 136.574219 30.328125 Z M 136.574219 30.328125 " fill-opacity="1" fill-rule="nonzero"/><path fill="#6b80d6" d="M 113.785156 22.210938 C 110 18.484375 107.457031 23.015625 107.457031 23.019531 C 106.800781 24.789062 107.410156 27.796875 111.042969 29.285156 C 113.027344 30.097656 117.597656 31.136719 120.992188 31.847656 C 119.121094 30.375 115.929688 24.320312 113.785156 22.210938 Z M 113.785156 22.210938 " fill-opacity="1" fill-rule="nonzero"/><path fill="#19055b" d="M 120.996094 32.351562 C 120.960938 32.351562 120.925781 32.347656 120.890625 32.339844 C 117.417969 31.613281 112.859375 30.574219 110.851562 29.75 C 107.226562 28.269531 106.152344 25.085938 106.984375 22.84375 C 106.992188 22.820312 107.003906 22.800781 107.015625 22.777344 C 107.027344 22.757812 108.234375 20.582031 110.335938 20.273438 C 111.605469 20.085938 112.886719 20.617188 114.140625 21.851562 C 115.199219 22.894531 116.488281 24.839844 117.734375 26.71875 C 119.039062 28.691406 120.390625 30.730469 121.304688 31.453125 C 121.492188 31.597656 121.550781 31.847656 121.453125 32.0625 C 121.367188 32.242188 121.1875 32.351562 120.996094 32.351562 Z M 107.914062 23.234375 C 107.386719 24.734375 107.832031 27.425781 111.234375 28.820312 C 112.882812 29.492188 116.386719 30.335938 119.511719 31.015625 C 118.710938 30.023438 117.816406 28.675781 116.890625 27.273438 C 115.675781 25.4375 114.414062 23.539062 113.429688 22.566406 C 112.421875 21.574219 111.4375 21.136719 110.5 21.265625 C 109.039062 21.46875 108.0625 22.996094 107.914062 23.234375 Z M 107.914062 23.234375 " fill-opacity="1" fill-rule="nonzero"/><path fill="#ffffff" d="M 120.023438 16.378906 C 118.355469 15.28125 114.550781 13.027344 112.039062 16.378906 C 110.941406 17.847656 108.863281 20.867188 107.800781 22.359375 C 107.664062 22.550781 107.546875 22.773438 107.457031 23.019531 C 107.457031 23.015625 110 18.484375 113.785156 22.210938 C 115.929688 24.320312 119.121094 30.375 120.992188 31.847656 C 123.328125 32.339844 125.109375 32.671875 125.109375 32.671875 L 125.859375 28.089844 C 125.859375 28.089844 125.84375 20.214844 120.023438 16.378906 Z M 120.023438 16.378906 " fill-opacity="1" fill-rule="nonzero"/><path fill="#19055b" d="M 125.109375 33.175781 C 125.078125 33.175781 125.046875 33.175781 125.015625 33.167969 C 125 33.164062 123.203125 32.828125 120.890625 32.339844 C 120.8125 32.324219 120.742188 32.292969 120.683594 32.242188 C 119.640625 31.421875 118.304688 29.410156 116.890625 27.273438 C 115.675781 25.4375 114.414062 23.539062 113.429688 22.566406 C 112.421875 21.574219 111.4375 21.136719 110.5 21.265625 C 108.921875 21.488281 107.90625 23.25 107.898438 23.265625 C 107.765625 23.496094 107.484375 23.585938 107.246094 23.476562 C 107.007812 23.367188 106.890625 23.089844 106.984375 22.84375 C 107.089844 22.554688 107.226562 22.292969 107.390625 22.066406 C 107.742188 21.574219 108.203125 20.910156 108.707031 20.195312 C 109.734375 18.726562 110.898438 17.066406 111.636719 16.078125 C 113.574219 13.488281 116.488281 13.449219 120.300781 15.960938 C 126.28125 19.898438 126.363281 27.753906 126.363281 28.089844 C 126.363281 28.117188 126.359375 28.144531 126.355469 28.171875 L 125.609375 32.753906 C 125.585938 32.886719 125.511719 33.007812 125.398438 33.085938 C 125.3125 33.144531 125.210938 33.175781 125.109375 33.175781 Z M 121.21875 31.378906 C 122.738281 31.699219 124.023438 31.949219 124.695312 32.082031 L 125.351562 28.050781 C 125.339844 27.464844 125.0625 20.304688 119.742188 16.800781 C 116.414062 14.605469 114.027344 14.566406 112.445312 16.679688 C 111.777344 17.574219 110.75 19.035156 109.796875 20.394531 C 109.96875 20.339844 110.148438 20.300781 110.335938 20.273438 C 111.605469 20.085938 112.886719 20.617188 114.140625 21.851562 C 115.199219 22.894531 116.488281 24.839844 117.734375 26.71875 C 119 28.628906 120.304688 30.601562 121.21875 31.378906 Z M 121.21875 31.378906 " fill-opacity="1" fill-rule="nonzero"/><path fill="#5774eb" d="M 101.863281 32.523438 L 117.328125 28.941406 L 150.253906 37.109375 L 144.265625 74.675781 L 95.078125 74.675781 Z M 101.863281 32.523438 " fill-opacity="1" fill-rule="nonzero"/><path fill="#19055b" d="M 144.265625 75.179688 L 95.078125 75.179688 C 94.929688 75.179688 94.789062 75.117188 94.695312 75.003906 C 94.597656 74.890625 94.558594 74.742188 94.582031 74.597656 L 101.363281 32.445312 C 101.398438 32.242188 101.550781 32.078125 101.75 32.03125 L 117.214844 28.453125 C 117.292969 28.433594 117.371094 28.433594 117.449219 28.453125 L 150.375 36.617188 C 150.628906 36.683594 150.792969 36.929688 150.75 37.1875 L 144.765625 74.757812 C 144.726562 75 144.515625 75.179688 144.265625 75.179688 Z M 95.671875 74.171875 L 143.835938 74.171875 L 149.679688 37.484375 L 117.324219 29.460938 L 102.308594 32.9375 Z M 95.671875 74.171875 " fill-opacity="1" fill-rule="nonzero"/><path fill="#19055b" d="M 110.242188 75.621094 C 110.21875 75.621094 110.191406 75.621094 110.164062 75.617188 C 109.890625 75.574219 109.703125 75.316406 109.742188 75.042969 L 116.828125 28.867188 C 116.871094 28.589844 117.125 28.402344 117.40625 28.445312 C 117.679688 28.488281 117.867188 28.742188 117.828125 29.019531 L 110.742188 75.195312 C 110.703125 75.445312 110.488281 75.621094 110.242188 75.621094 Z M 110.242188 75.621094 " fill-opacity="1" fill-rule="nonzero"/><path fill="#19055b" d="M 111.546875 30.28125 L 112.886719 35.5 L 117.015625 30.980469 Z M 111.546875 30.28125 " fill-opacity="1" fill-rule="nonzero"/><path fill="#19055b" d="M 112.886719 36.003906 C 112.847656 36.003906 112.804688 36 112.765625 35.988281 C 112.585938 35.945312 112.445312 35.804688 112.398438 35.625 L 111.054688 30.40625 C 111.015625 30.246094 111.054688 30.074219 111.167969 29.949219 C 111.277344 29.824219 111.445312 29.761719 111.609375 29.78125 L 117.078125 30.480469 C 117.265625 30.503906 117.421875 30.632812 117.488281 30.808594 C 117.554688 30.984375 117.515625 31.183594 117.386719 31.320312 L 113.261719 35.839844 C 113.164062 35.945312 113.027344 36.003906 112.886719 36.003906 Z M 112.21875 30.875 L 113.144531 34.472656 L 115.988281 31.359375 Z M 112.21875 30.875 " fill-opacity="1" fill-rule="nonzero"/><path fill="#4a6cf7" d="M 125.394531 30.941406 C 125.394531 30.941406 116.929688 23.40625 109.84375 27.242188 L 113.335938 33.222656 C 113.335938 33.222656 117.328125 28.695312 125.394531 30.941406 Z M 125.394531 30.941406 " fill-opacity="1" fill-rule="nonzero"/><path fill="#19055b" d="M 113.335938 33.726562 C 113.320312 33.726562 113.304688 33.722656 113.289062 33.722656 C 113.125 33.707031 112.984375 33.613281 112.902344 33.476562 L 109.410156 27.496094 C 109.339844 27.378906 109.324219 27.238281 109.359375 27.105469 C 109.394531 26.976562 109.484375 26.863281 109.605469 26.800781 C 116.914062 22.839844 125.371094 30.25 125.730469 30.566406 C 125.902344 30.722656 125.949219 30.980469 125.835938 31.183594 C 125.722656 31.390625 125.484375 31.492188 125.257812 31.429688 C 117.621094 29.300781 113.871094 33.378906 113.714844 33.554688 C 113.617188 33.664062 113.480469 33.726562 113.335938 33.726562 Z M 110.550781 27.453125 L 113.449219 32.414062 C 114.621094 31.394531 117.875 29.175781 123.285156 29.976562 C 120.585938 28.128906 115.253906 25.269531 110.550781 27.453125 Z M 110.550781 27.453125 " fill-opacity="1" fill-rule="nonzero"/><path fill="#19055b" d="M 133.0625 29.027344 C 132.90625 29.027344 132.757812 28.957031 132.65625 28.828125 C 132.492188 28.605469 132.535156 28.289062 132.757812 28.121094 C 133.253906 27.75 133.636719 27.414062 134.082031 27.03125 C 134.726562 26.46875 135.53125 25.765625 137.03125 24.644531 C 137.253906 24.480469 137.570312 24.523438 137.738281 24.746094 C 137.902344 24.96875 137.859375 25.285156 137.632812 25.453125 C 136.164062 26.550781 135.378906 27.238281 134.746094 27.789062 C 134.285156 28.1875 133.890625 28.535156 133.363281 28.929688 C 133.273438 28.996094 133.167969 29.027344 133.0625 29.027344 Z M 133.0625 29.027344 " fill-opacity="1" fill-rule="nonzero"/><path fill="#19055b" d="M 124.988281 29.804688 C 124.792969 29.804688 124.609375 29.695312 124.527344 29.507812 C 123.949219 28.199219 123.210938 27.238281 122.429688 26.21875 C 122.074219 25.757812 121.707031 25.277344 121.339844 24.75 C 121.179688 24.519531 121.238281 24.207031 121.464844 24.046875 C 121.695312 23.890625 122.007812 23.945312 122.167969 24.175781 C 122.519531 24.683594 122.878906 25.152344 123.230469 25.605469 C 124.046875 26.671875 124.824219 27.679688 125.449219 29.097656 C 125.5625 29.351562 125.445312 29.652344 125.191406 29.761719 C 125.125 29.792969 125.054688 29.804688 124.988281 29.804688 Z M 124.988281 29.804688 " fill-opacity="1" fill-rule="nonzero"/><path fill="#ffffff" d="M 130.921875 32.3125 L 124.117188 74.675781 L 135.472656 74.675781 L 141.84375 35.023438 Z M 130.921875 32.3125 " fill-opacity="1" fill-rule="nonzero"/><path fill="#19055b" d="M 135.472656 75.179688 L 124.117188 75.179688 C 123.96875 75.179688 123.828125 75.117188 123.734375 75.003906 C 123.636719 74.890625 123.597656 74.742188 123.621094 74.597656 L 130.425781 32.234375 C 130.445312 32.09375 130.527344 31.972656 130.644531 31.894531 C 130.761719 31.816406 130.910156 31.792969 131.042969 31.824219 L 141.964844 34.535156 C 142.21875 34.597656 142.382812 34.84375 142.34375 35.101562 L 135.972656 74.757812 C 135.933594 75 135.722656 75.179688 135.472656 75.179688 Z M 124.710938 74.171875 L 135.042969 74.171875 L 141.273438 35.398438 L 131.335938 32.933594 Z M 124.710938 74.171875 " fill-opacity="1" fill-rule="nonzero"/><path fill="#19055b" d="M 134.007812 31.011719 C 134.007812 31.011719 143.414062 36.699219 142.96875 44.257812 L 140.007812 46.441406 C 140.007812 46.441406 140.992188 35.5 131.894531 32.554688 Z M 134.007812 31.011719 " fill-opacity="1" fill-rule="nonzero"/><path fill="#19055b" d="M 140.007812 46.945312 C 139.925781 46.945312 139.839844 46.921875 139.761719 46.878906 C 139.589844 46.78125 139.488281 46.59375 139.507812 46.394531 C 139.546875 45.964844 140.339844 35.816406 131.738281 33.035156 C 131.558594 32.976562 131.425781 32.820312 131.394531 32.636719 C 131.367188 32.449219 131.445312 32.261719 131.597656 32.148438 L 133.710938 30.605469 C 133.875 30.484375 134.097656 30.472656 134.269531 30.578125 C 134.664062 30.816406 143.929688 36.511719 143.46875 44.285156 C 143.460938 44.433594 143.386719 44.574219 143.265625 44.660156 L 140.308594 46.84375 C 140.21875 46.910156 140.117188 46.945312 140.007812 46.945312 Z M 132.953125 32.40625 C 139.773438 35.195312 140.507812 42.644531 140.539062 45.421875 L 142.472656 43.992188 C 142.671875 37.660156 135.542969 32.617188 134.027344 31.621094 Z M 132.953125 32.40625 " fill-opacity="1" fill-rule="nonzero"/><path fill="#ffffff" d="M 106.257812 31.507812 L 99.28125 74.675781 L 104.375 74.675781 L 111.546875 30.28125 Z M 106.257812 31.507812 " fill-opacity="1" fill-rule="nonzero"/><path fill="#19055b" d="M 104.375 75.179688 L 99.28125 75.179688 C 99.136719 75.179688 98.996094 75.117188 98.898438 75.003906 C 98.804688 74.890625 98.761719 74.742188 98.785156 74.597656 L 105.757812 31.425781 C 105.792969 31.222656 105.941406 31.0625 106.144531 31.015625 L 111.429688 29.789062 C 111.59375 29.753906 111.765625 29.796875 111.890625 29.914062 C 112.011719 30.027344 112.070312 30.195312 112.042969 30.363281 L 104.871094 74.757812 C 104.832031 75 104.621094 75.179688 104.375 75.179688 Z M 99.875 74.171875 L 103.945312 74.171875 L 110.925781 30.941406 L 106.699219 31.921875 Z M 99.875 74.171875 " fill-opacity="1" fill-rule="nonzero"/><path fill="#4a6cf7" d="M 133.492188 30.480469 C 133.492188 30.480469 146.773438 33.542969 148.464844 40.925781 C 148.464844 40.925781 144.644531 42.203125 141.617188 46.957031 C 141.617188 46.957031 143.941406 35.695312 131.894531 32.554688 Z M 133.492188 30.480469 " fill-opacity="1" fill-rule="nonzero"/><path fill="#19055b" d="M 141.617188 47.457031 C 141.554688 47.457031 141.488281 47.445312 141.429688 47.421875 C 141.203125 47.332031 141.074219 47.09375 141.121094 46.855469 C 141.214844 46.414062 143.195312 36.023438 131.765625 33.042969 C 131.605469 33 131.472656 32.878906 131.417969 32.71875 C 131.363281 32.558594 131.390625 32.382812 131.496094 32.25 L 133.089844 30.171875 C 133.210938 30.015625 133.414062 29.945312 133.605469 29.988281 C 134.160156 30.117188 147.214844 33.210938 148.953125 40.8125 C 149.011719 41.066406 148.871094 41.320312 148.625 41.402344 C 148.585938 41.414062 144.925781 42.695312 142.042969 47.226562 C 141.949219 47.375 141.785156 47.457031 141.617188 47.457031 Z M 132.75 32.273438 C 141.371094 34.875 142.351562 41.769531 142.285156 45.144531 C 144.527344 42.296875 146.898438 41.042969 147.863281 40.621094 C 146.039062 34.523438 135.632812 31.554688 133.691406 31.050781 Z M 132.75 32.273438 " fill-opacity="1" fill-rule="nonzero"/><path fill="#ffffff" d="M 125.859375 28.089844 C 127.03125 26.710938 129.855469 26.023438 131.894531 27.390625 C 133.640625 28.5625 134.191406 30.480469 133.625 32.984375 L 124.183594 30.644531 C 124.183594 30.644531 125.113281 28.964844 125.859375 28.089844 Z M 125.859375 28.089844 " fill-opacity="1" fill-rule="nonzero"/><path fill="#19055b" d="M 133.625 33.488281 C 133.585938 33.488281 133.542969 33.484375 133.503906 33.472656 L 124.0625 31.132812 C 123.910156 31.09375 123.785156 30.988281 123.722656 30.84375 C 123.660156 30.699219 123.667969 30.535156 123.742188 30.398438 C 123.78125 30.328125 124.703125 28.667969 125.472656 27.761719 C 126.828125 26.171875 129.914062 25.457031 132.175781 26.972656 C 134.0625 28.238281 134.734375 30.355469 134.117188 33.09375 C 134.089844 33.226562 134.003906 33.34375 133.890625 33.414062 C 133.808594 33.460938 133.71875 33.488281 133.625 33.488281 Z M 124.957031 30.316406 L 133.234375 32.367188 C 133.578125 30.292969 133.035156 28.761719 131.613281 27.808594 C 129.875 26.644531 127.296875 27.175781 126.242188 28.414062 C 125.800781 28.933594 125.285156 29.761719 124.957031 30.316406 Z M 125.859375 28.089844 L 125.863281 28.089844 Z M 125.859375 28.089844 " fill-opacity="1" fill-rule="nonzero"/><g clip-path="url(#11988459e6)"><path fill="#6b80d6" d="M 25.472656 48.320312 L 13.53125 48.320312 L 11.945312 176.855469 L 25.929688 181.410156 Z M 25.472656 48.320312 " fill-opacity="1" fill-rule="nonzero"/></g><g clip-path="url(#1c128dc428)"><path fill="#19055b" d="M 25.929688 181.914062 C 25.878906 181.914062 25.828125 181.90625 25.773438 181.890625 L 11.789062 177.335938 C 11.582031 177.265625 11.441406 177.070312 11.441406 176.851562 L 13.027344 48.316406 C 13.03125 48.039062 13.253906 47.816406 13.53125 47.816406 L 25.472656 47.816406 C 25.753906 47.816406 25.976562 48.042969 25.980469 48.320312 L 26.4375 181.40625 C 26.4375 181.570312 26.359375 181.722656 26.230469 181.816406 C 26.140625 181.878906 26.035156 181.914062 25.929688 181.914062 Z M 12.457031 176.492188 L 25.425781 180.714844 L 24.972656 48.824219 L 14.03125 48.824219 Z M 12.457031 176.492188 " fill-opacity="1" fill-rule="nonzero"/></g><g clip-path="url(#c5b0b3df39)"><path fill="#19055b" d="M 25.929688 181.914062 C 25.878906 181.914062 25.828125 181.90625 25.773438 181.890625 L 11.789062 177.335938 C 11.636719 177.285156 11.519531 177.167969 11.46875 177.015625 C 11.417969 176.863281 11.441406 176.695312 11.535156 176.5625 L 25.519531 156.964844 C 25.648438 156.785156 25.875 156.707031 26.085938 156.777344 C 26.292969 156.84375 26.4375 157.035156 26.4375 157.253906 L 26.4375 181.410156 C 26.4375 181.570312 26.359375 181.722656 26.226562 181.816406 C 26.140625 181.878906 26.035156 181.914062 25.929688 181.914062 Z M 12.757812 176.589844 L 25.425781 180.714844 L 25.425781 158.832031 Z M 12.757812 176.589844 " fill-opacity="1" fill-rule="nonzero"/></g><g clip-path="url(#ebf6df3f61)"><path fill="#4a6cf7" d="M 25.46875 46.441406 L 155.265625 48.988281 L 156.65625 174.695312 L 25.929688 181.410156 Z M 25.46875 46.441406 " fill-opacity="1" fill-rule="nonzero"/></g><g clip-path="url(#8f1bf64c87)"><path fill="#19055b" d="M 25.929688 181.914062 C 25.804688 181.914062 25.679688 181.863281 25.585938 181.777344 C 25.484375 181.679688 25.425781 181.550781 25.425781 181.410156 L 24.964844 46.441406 C 24.964844 46.304688 25.015625 46.175781 25.113281 46.082031 C 25.210938 45.984375 25.335938 45.929688 25.476562 45.9375 L 155.277344 48.484375 C 155.546875 48.488281 155.765625 48.707031 155.769531 48.980469 L 157.160156 174.691406 C 157.164062 174.960938 156.953125 175.183594 156.683594 175.199219 L 25.957031 181.914062 C 25.949219 181.914062 25.941406 181.914062 25.929688 181.914062 Z M 25.972656 46.953125 L 26.433594 180.878906 L 156.148438 174.21875 L 154.765625 49.480469 Z M 25.972656 46.953125 " fill-opacity="1" fill-rule="nonzero"/></g><path fill="#19055b" d="M 94.925781 98.851562 C 75.964844 97.550781 74.621094 89.019531 74.621094 89.019531 L 74.554688 88.992188 C 74.554688 89.703125 74.554688 90.363281 74.542969 90.96875 C 74.480469 94.941406 75.328125 98.035156 79.652344 100.792969 C 85.09375 104.265625 96.121094 106.394531 107.164062 102.890625 C 113.675781 100.824219 116.796875 96.582031 117.328125 90.957031 C 115.214844 96.378906 103.445312 99.4375 94.925781 98.851562 Z M 94.925781 98.851562 " fill-opacity="1" fill-rule="nonzero"/><path fill="#19055b" d="M 95.460938 105.199219 C 88.765625 105.199219 82.933594 103.488281 79.378906 101.21875 C 74.859375 98.335938 73.976562 95.03125 74.039062 90.960938 C 74.046875 90.359375 74.050781 89.699219 74.050781 88.992188 C 74.050781 88.824219 74.136719 88.667969 74.273438 88.574219 C 74.414062 88.480469 74.589844 88.464844 74.746094 88.527344 L 74.8125 88.554688 C 74.976562 88.621094 75.09375 88.765625 75.117188 88.941406 C 75.132812 89.019531 76.710938 97.097656 94.960938 98.351562 C 103.667969 98.949219 114.886719 95.835938 116.859375 90.777344 C 116.949219 90.542969 117.203125 90.410156 117.445312 90.46875 C 117.6875 90.527344 117.855469 90.757812 117.832031 91.007812 C 117.246094 97.183594 113.710938 101.34375 107.316406 103.371094 C 103.261719 104.65625 99.222656 105.199219 95.460938 105.199219 Z M 75.042969 91.273438 C 75.03125 94.96875 75.890625 97.796875 79.921875 100.371094 C 85.285156 103.789062 96.046875 105.886719 107.011719 102.410156 C 112.117188 100.789062 115.273438 97.726562 116.417969 93.28125 C 112.308594 97.730469 101.871094 99.835938 94.890625 99.355469 C 81.570312 98.441406 76.757812 94.007812 75.042969 91.273438 Z M 75.042969 91.273438 " fill-opacity="1" fill-rule="nonzero"/><path fill="#19055b" d="M 117.027344 62.980469 L 111.257812 61.875 C 112.25 63.21875 112.109375 66.453125 112.179688 69.695312 C 112.332031 76.605469 112.820312 94.550781 112.320312 100.320312 C 115.667969 99.324219 118.65625 95.640625 119.511719 93.023438 C 119.558594 92.425781 119.582031 91.8125 119.582031 91.1875 C 119.574219 87.148438 119.539062 79.0625 119.582031 75.027344 C 119.625 70.898438 119.609375 65.355469 117.027344 62.980469 Z M 117.027344 62.980469 " fill-opacity="1" fill-rule="nonzero"/><path fill="#19055b" d="M 112.320312 100.824219 C 112.207031 100.824219 112.09375 100.785156 112 100.710938 C 111.871094 100.605469 111.804688 100.441406 111.816406 100.277344 C 112.261719 95.148438 111.917969 80.261719 111.734375 72.265625 L 111.675781 69.707031 C 111.664062 69.203125 111.660156 68.695312 111.652344 68.199219 C 111.621094 65.617188 111.59375 63.175781 110.855469 62.175781 C 110.730469 62.007812 110.722656 61.785156 110.832031 61.609375 C 110.945312 61.433594 111.152344 61.34375 111.355469 61.382812 L 117.121094 62.484375 C 117.214844 62.503906 117.300781 62.546875 117.371094 62.609375 C 119.972656 65.003906 120.136719 70.0625 120.085938 75.03125 C 120.050781 78.101562 120.066406 83.433594 120.078125 87.714844 C 120.082031 89.03125 120.082031 90.222656 120.085938 91.1875 C 120.085938 91.824219 120.0625 92.453125 120.011719 93.0625 C 120.011719 93.101562 120.003906 93.140625 119.992188 93.179688 C 119.054688 96.046875 115.910156 99.78125 112.464844 100.804688 C 112.417969 100.816406 112.367188 100.824219 112.320312 100.824219 Z M 112.15625 62.5625 C 112.613281 63.933594 112.636719 65.9375 112.660156 68.1875 C 112.667969 68.679688 112.671875 69.183594 112.683594 69.683594 L 112.742188 72.242188 C 112.917969 79.886719 113.238281 93.816406 112.878906 99.582031 C 115.632812 98.417969 118.195312 95.347656 119.011719 92.921875 C 119.054688 92.359375 119.078125 91.777344 119.074219 91.1875 C 119.074219 90.226562 119.070312 89.03125 119.066406 87.71875 C 119.058594 83.433594 119.042969 78.097656 119.074219 75.023438 C 119.113281 71.5625 119.175781 65.804688 116.785156 63.449219 Z M 112.15625 62.5625 " fill-opacity="1" fill-rule="nonzero"/><path fill="#5774eb" d="M 118.136719 61.871094 L 111.257812 61.875 C 112.25 63.21875 113.21875 65.34375 113.289062 68.585938 C 113.441406 75.496094 113.929688 93.441406 113.429688 99.210938 C 116.78125 98.214844 119.765625 94.53125 120.621094 91.914062 C 120.667969 91.316406 120.691406 90.707031 120.691406 90.078125 C 120.683594 86.039062 120.648438 77.953125 120.691406 73.917969 C 120.734375 69.789062 120.71875 64.246094 118.136719 61.871094 Z M 118.136719 61.871094 " fill-opacity="1" fill-rule="nonzero"/><path fill="#19055b" d="M 113.429688 99.714844 C 113.316406 99.714844 113.203125 99.675781 113.113281 99.601562 C 112.980469 99.496094 112.914062 99.332031 112.929688 99.167969 C 113.371094 94.039062 113.027344 79.152344 112.84375 71.15625 L 112.785156 68.597656 C 112.730469 65.992188 112.078125 63.832031 110.855469 62.175781 C 110.742188 62.023438 110.722656 61.820312 110.808594 61.648438 C 110.894531 61.480469 111.070312 61.371094 111.257812 61.371094 L 118.136719 61.367188 C 118.265625 61.367188 118.386719 61.414062 118.480469 61.5 C 121.082031 63.898438 121.25 68.953125 121.195312 73.921875 C 121.164062 76.992188 121.175781 82.324219 121.1875 86.605469 C 121.191406 87.921875 121.195312 89.113281 121.195312 90.078125 C 121.195312 90.710938 121.171875 91.34375 121.125 91.953125 C 121.121094 91.992188 121.113281 92.03125 121.101562 92.070312 C 120.164062 94.941406 117.019531 98.671875 113.574219 99.695312 C 113.527344 99.707031 113.480469 99.714844 113.429688 99.714844 Z M 112.199219 62.378906 C 113.207031 64.074219 113.742188 66.15625 113.792969 68.574219 L 113.851562 71.132812 C 114.027344 78.777344 114.351562 92.707031 113.992188 98.472656 C 116.746094 97.308594 119.308594 94.238281 120.125 91.8125 C 120.167969 91.25 120.1875 90.667969 120.1875 90.078125 C 120.183594 89.117188 120.183594 87.921875 120.179688 86.609375 C 120.167969 82.324219 120.152344 76.988281 120.1875 73.914062 C 120.222656 70.472656 120.285156 64.753906 117.933594 62.375 Z M 112.199219 62.378906 " fill-opacity="1" fill-rule="nonzero"/><path fill="#5774eb" d="M 78.527344 68.347656 C 78.574219 66.691406 78.390625 64.015625 76.167969 61.894531 L 69.65625 61.898438 C 69.65625 61.898438 71.191406 63.546875 71.101562 66.882812 C 70.941406 72.519531 71.261719 83.308594 71.265625 89.945312 L 71.320312 89.972656 C 71.320312 89.972656 73.582031 96.8125 78.480469 99.210938 C 78.421875 91.78125 78.347656 74.429688 78.527344 68.347656 Z M 78.527344 68.347656 " fill-opacity="1" fill-rule="nonzero"/><path fill="#19055b" d="M 78.480469 99.714844 C 78.402344 99.714844 78.328125 99.699219 78.257812 99.664062 C 73.585938 97.378906 71.277344 91.367188 70.894531 90.289062 C 70.808594 90.199219 70.761719 90.078125 70.761719 89.945312 C 70.757812 87.371094 70.710938 84.214844 70.660156 80.871094 C 70.582031 75.6875 70.5 70.324219 70.59375 66.871094 C 70.679688 63.804688 69.296875 62.253906 69.285156 62.238281 C 69.148438 62.09375 69.113281 61.878906 69.195312 61.695312 C 69.277344 61.511719 69.457031 61.394531 69.65625 61.394531 L 76.167969 61.390625 C 76.296875 61.390625 76.421875 61.4375 76.515625 61.527344 C 78.292969 63.226562 79.113281 65.460938 79.03125 68.363281 C 78.84375 74.75 78.9375 93.234375 78.984375 99.207031 C 78.984375 99.382812 78.894531 99.542969 78.746094 99.636719 C 78.664062 99.6875 78.570312 99.714844 78.480469 99.714844 Z M 71.769531 89.746094 C 71.78125 89.769531 71.789062 89.789062 71.796875 89.816406 C 71.820312 89.878906 73.820312 95.789062 77.96875 98.351562 C 77.917969 91.628906 77.84375 74.453125 78.023438 68.332031 C 78.09375 65.8125 77.421875 63.867188 75.960938 62.398438 L 70.605469 62.402344 C 71.082031 63.253906 71.664062 64.75 71.605469 66.898438 C 71.507812 70.328125 71.589844 75.683594 71.667969 80.859375 C 71.71875 84.117188 71.765625 87.199219 71.769531 89.746094 Z M 78.527344 68.347656 L 78.53125 68.347656 Z M 78.527344 68.347656 " fill-opacity="1" fill-rule="nonzero"/><path fill="#ffffff" d="M 94.773438 99.808594 C 72.890625 98.503906 71.339844 89.972656 71.339844 89.972656 L 71.265625 89.945312 C 71.265625 90.65625 71.261719 91.320312 71.25 91.921875 C 71.179688 95.894531 72.15625 98.988281 77.144531 101.75 C 83.425781 105.21875 96.152344 107.347656 108.890625 103.84375 C 116.40625 101.777344 120.007812 97.535156 120.621094 91.914062 C 118.183594 97.332031 104.601562 100.390625 94.773438 99.808594 Z M 94.773438 99.808594 " fill-opacity="1" fill-rule="nonzero"/><path fill="#19055b" d="M 95.386719 106.152344 C 87.691406 106.152344 80.988281 104.449219 76.902344 102.1875 C 71.691406 99.308594 70.671875 95.996094 70.746094 91.914062 C 70.757812 91.3125 70.761719 90.652344 70.761719 89.949219 C 70.761719 89.785156 70.839844 89.628906 70.972656 89.535156 C 71.109375 89.441406 71.277344 89.417969 71.433594 89.472656 L 71.507812 89.5 C 71.679688 89.558594 71.804688 89.707031 71.835938 89.882812 C 71.851562 89.960938 73.691406 98.046875 94.800781 99.304688 C 104.683594 99.890625 117.914062 96.703125 120.160156 91.707031 C 120.261719 91.480469 120.511719 91.363281 120.753906 91.425781 C 120.992188 91.492188 121.148438 91.722656 121.125 91.96875 C 120.449219 98.148438 116.378906 102.308594 109.027344 104.328125 C 104.359375 105.613281 99.714844 106.152344 95.386719 106.152344 Z M 71.753906 92.019531 C 71.699219 95.800781 72.640625 98.683594 77.390625 101.308594 C 83.601562 104.742188 96.066406 106.847656 108.757812 103.359375 C 114.746094 101.710938 118.414062 98.589844 119.695312 94.0625 C 115.335938 98.449219 103.90625 100.855469 94.742188 100.308594 C 79 99.371094 73.585938 94.726562 71.753906 92.019531 Z M 71.753906 92.019531 " fill-opacity="1" fill-rule="nonzero"/><path fill="#19055b" d="M 120.039062 65.933594 L 112.886719 65.933594 C 112.609375 65.933594 112.382812 65.707031 112.382812 65.429688 C 112.382812 65.152344 112.609375 64.925781 112.886719 64.925781 L 120.039062 64.925781 C 120.316406 64.925781 120.542969 65.152344 120.542969 65.429688 C 120.542969 65.707031 120.316406 65.933594 120.039062 65.933594 Z M 120.039062 65.933594 " fill-opacity="1" fill-rule="nonzero"/><path fill="#19055b" d="M 78.234375 65.933594 L 71.035156 65.933594 C 70.753906 65.933594 70.53125 65.707031 70.53125 65.429688 C 70.53125 65.152344 70.753906 64.925781 71.035156 64.925781 L 78.234375 64.925781 C 78.511719 64.925781 78.738281 65.152344 78.738281 65.429688 C 78.738281 65.707031 78.511719 65.933594 78.234375 65.933594 Z M 78.234375 65.933594 " fill-opacity="1" fill-rule="nonzero"/><path fill="#19055b" d="M 101.863281 32.523438 L 97.65625 47.855469 L 99.390625 47.890625 Z M 101.863281 32.523438 " fill-opacity="1" fill-rule="nonzero"/><path fill="#19055b" d="M 99.390625 48.394531 C 99.386719 48.394531 99.382812 48.394531 99.378906 48.394531 L 97.648438 48.359375 C 97.492188 48.355469 97.347656 48.28125 97.253906 48.15625 C 97.160156 48.035156 97.128906 47.875 97.171875 47.722656 L 101.378906 32.390625 C 101.449219 32.132812 101.710938 31.972656 101.96875 32.03125 C 102.230469 32.089844 102.402344 32.339844 102.363281 32.605469 L 99.886719 47.96875 C 99.847656 48.214844 99.636719 48.394531 99.390625 48.394531 Z M 98.316406 47.363281 L 98.960938 47.378906 L 99.882812 41.648438 Z M 98.316406 47.363281 " fill-opacity="1" fill-rule="nonzero"/><path fill="#19055b" d="M 77.003906 22.3125 L 72.746094 47.367188 L 74.394531 47.398438 Z M 77.003906 22.3125 " fill-opacity="1" fill-rule="nonzero"/><path fill="#19055b" d="M 74.394531 47.902344 C 74.390625 47.902344 74.386719 47.902344 74.382812 47.902344 L 72.734375 47.871094 C 72.589844 47.867188 72.449219 47.800781 72.355469 47.6875 C 72.261719 47.574219 72.222656 47.425781 72.246094 47.285156 L 76.507812 22.230469 C 76.554688 21.960938 76.808594 21.777344 77.074219 21.816406 C 77.34375 21.851562 77.535156 22.097656 77.507812 22.367188 L 74.894531 47.453125 C 74.867188 47.710938 74.652344 47.902344 74.394531 47.902344 Z M 73.339844 46.875 L 73.9375 46.886719 L 74.886719 37.777344 Z M 73.339844 46.875 " fill-opacity="1" fill-rule="nonzero"/><path fill="#19055b" d="M 19.738281 44.738281 L 25.46875 46.441406 L 25.472656 48.320312 L 20.851562 48.320312 Z M 19.738281 44.738281 " fill-opacity="1" fill-rule="nonzero"/><path fill="#19055b" d="M 25.472656 48.824219 L 20.851562 48.824219 C 20.628906 48.824219 20.433594 48.679688 20.371094 48.46875 L 19.257812 44.886719 C 19.203125 44.710938 19.25 44.515625 19.378906 44.382812 C 19.511719 44.25 19.703125 44.203125 19.882812 44.253906 L 25.613281 45.957031 C 25.824219 46.019531 25.972656 46.214844 25.972656 46.4375 L 25.980469 48.320312 C 25.980469 48.453125 25.925781 48.582031 25.832031 48.675781 C 25.738281 48.773438 25.609375 48.824219 25.472656 48.824219 Z M 21.222656 47.816406 L 24.96875 47.816406 L 24.964844 46.816406 L 20.5 45.488281 Z M 21.222656 47.816406 " fill-opacity="1" fill-rule="nonzero"/><g fill="#000000" fill-opacity="1"><g transform="translate(165.339383, 85.400373)"><g><path d="M 10.09375 0.5625 C 8.34375 0.5625 6.800781 0.128906 5.46875 -0.734375 C 4.132812 -1.609375 3.109375 -2.800781 2.390625 -4.3125 C 1.671875 -5.820312 1.3125 -7.503906 1.3125 -9.359375 C 1.3125 -11.210938 1.671875 -12.894531 2.390625 -14.40625 C 3.109375 -15.925781 4.132812 -17.117188 5.46875 -17.984375 C 6.800781 -18.859375 8.34375 -19.296875 10.09375 -19.296875 C 11.851562 -19.296875 13.398438 -18.859375 14.734375 -17.984375 C 16.066406 -17.117188 17.09375 -15.925781 17.8125 -14.40625 C 18.53125 -12.894531 18.890625 -11.210938 18.890625 -9.359375 C 18.890625 -7.503906 18.53125 -5.820312 17.8125 -4.3125 C 17.09375 -2.800781 16.066406 -1.609375 14.734375 -0.734375 C 13.398438 0.128906 11.851562 0.5625 10.09375 0.5625 Z M 10.09375 -0.5625 C 11.332031 -0.5625 12.398438 -0.921875 13.296875 -1.640625 C 14.191406 -2.359375 14.875 -3.375 15.34375 -4.6875 C 15.820312 -6.007812 16.0625 -7.566406 16.0625 -9.359375 C 16.0625 -11.160156 15.820312 -12.71875 15.34375 -14.03125 C 14.875 -15.34375 14.191406 -16.359375 13.296875 -17.078125 C 12.398438 -17.796875 11.332031 -18.15625 10.09375 -18.15625 C 8.863281 -18.15625 7.800781 -17.796875 6.90625 -17.078125 C 6.007812 -16.359375 5.320312 -15.34375 4.84375 -14.03125 C 4.375 -12.71875 4.140625 -11.160156 4.140625 -9.359375 C 4.140625 -7.566406 4.375 -6.007812 4.84375 -4.6875 C 5.320312 -3.375 6.007812 -2.359375 6.90625 -1.640625 C 7.800781 -0.921875 8.863281 -0.5625 10.09375 -0.5625 Z M 10.09375 -0.5625 "/></g></g></g><g fill="#000000" fill-opacity="1"><g transform="translate(185.42832, 85.400373)"><g><path d="M 8 0.484375 C 6.957031 0.484375 5.9375 0.335938 4.9375 0.046875 C 3.9375 -0.234375 3.117188 -0.632812 2.484375 -1.15625 C 1.847656 -1.6875 1.53125 -2.296875 1.53125 -2.984375 L 1.53125 -6.015625 L 2.046875 -6.015625 C 2.367188 -4.117188 2.992188 -2.75 3.921875 -1.90625 C 4.847656 -1.070312 6.125 -0.65625 7.75 -0.65625 C 8.769531 -0.65625 9.644531 -0.910156 10.375 -1.421875 C 11.101562 -1.929688 11.46875 -2.640625 11.46875 -3.546875 C 11.46875 -4.335938 11.21875 -5.023438 10.71875 -5.609375 C 10.226562 -6.203125 9.4375 -6.820312 8.34375 -7.46875 L 4.859375 -9.53125 C 3.640625 -10.25 2.78125 -10.976562 2.28125 -11.71875 C 1.78125 -12.457031 1.53125 -13.359375 1.53125 -14.421875 C 1.53125 -15.867188 2.035156 -17.03125 3.046875 -17.90625 C 4.054688 -18.789062 5.382812 -19.234375 7.03125 -19.234375 C 8 -19.234375 8.957031 -19.097656 9.90625 -18.828125 C 10.851562 -18.554688 11.632812 -18.160156 12.25 -17.640625 C 12.863281 -17.117188 13.171875 -16.515625 13.171875 -15.828125 L 13.171875 -12.796875 L 12.65625 -12.796875 C 12.332031 -14.691406 11.722656 -16.050781 10.828125 -16.875 C 9.929688 -17.695312 8.664062 -18.109375 7.03125 -18.109375 C 6.164062 -18.109375 5.398438 -17.84375 4.734375 -17.3125 C 4.078125 -16.78125 3.75 -16.085938 3.75 -15.234375 C 3.75 -14.460938 3.988281 -13.820312 4.46875 -13.3125 C 4.945312 -12.800781 5.753906 -12.203125 6.890625 -11.515625 L 10.390625 -9.453125 C 11.671875 -8.671875 12.578125 -7.945312 13.109375 -7.28125 C 13.640625 -6.625 13.90625 -5.785156 13.90625 -4.765625 C 13.90625 -3.179688 13.375 -1.910156 12.3125 -0.953125 C 11.25 0.00390625 9.8125 0.484375 8 0.484375 Z M 8 0.484375 "/></g></g></g><g fill="#000000" fill-opacity="1"><g transform="translate(200.438267, 85.400373)"><g><path d="M 3 -15.328125 C 3 -16.285156 2.867188 -16.992188 2.609375 -17.453125 C 2.347656 -17.921875 1.816406 -18.15625 1.015625 -18.15625 L 0.453125 -18.15625 L 0.453125 -18.734375 L 3 -18.734375 C 3.707031 -18.734375 4.234375 -18.640625 4.578125 -18.453125 C 4.929688 -18.273438 5.179688 -17.945312 5.328125 -17.46875 C 5.484375 -17 5.5625 -16.285156 5.5625 -15.328125 L 5.5625 -10.21875 L 14.078125 -10.21875 L 14.078125 -18.734375 L 16.625 -18.734375 L 16.625 -3.40625 C 16.625 -2.4375 16.753906 -1.71875 17.015625 -1.25 C 17.285156 -0.789062 17.816406 -0.5625 18.609375 -0.5625 L 19.1875 -0.5625 L 19.1875 0 L 16.625 0 C 15.925781 0 15.398438 -0.0859375 15.046875 -0.265625 C 14.703125 -0.453125 14.453125 -0.78125 14.296875 -1.25 C 14.148438 -1.71875 14.078125 -2.4375 14.078125 -3.40625 L 14.078125 -9.078125 L 5.5625 -9.078125 L 5.5625 0 L 3 0 Z M 3 -15.328125 "/></g></g></g><g fill="#000000" fill-opacity="1"><g transform="translate(219.988087, 85.400373)"><g><path d="M 10.09375 0.5625 C 8.34375 0.5625 6.800781 0.128906 5.46875 -0.734375 C 4.132812 -1.609375 3.109375 -2.800781 2.390625 -4.3125 C 1.671875 -5.820312 1.3125 -7.503906 1.3125 -9.359375 C 1.3125 -11.210938 1.671875 -12.894531 2.390625 -14.40625 C 3.109375 -15.925781 4.132812 -17.117188 5.46875 -17.984375 C 6.800781 -18.859375 8.34375 -19.296875 10.09375 -19.296875 C 11.851562 -19.296875 13.398438 -18.859375 14.734375 -17.984375 C 16.066406 -17.117188 17.09375 -15.925781 17.8125 -14.40625 C 18.53125 -12.894531 18.890625 -11.210938 18.890625 -9.359375 C 18.890625 -7.503906 18.53125 -5.820312 17.8125 -4.3125 C 17.09375 -2.800781 16.066406 -1.609375 14.734375 -0.734375 C 13.398438 0.128906 11.851562 0.5625 10.09375 0.5625 Z M 10.09375 -0.5625 C 11.332031 -0.5625 12.398438 -0.921875 13.296875 -1.640625 C 14.191406 -2.359375 14.875 -3.375 15.34375 -4.6875 C 15.820312 -6.007812 16.0625 -7.566406 16.0625 -9.359375 C 16.0625 -11.160156 15.820312 -12.71875 15.34375 -14.03125 C 14.875 -15.34375 14.191406 -16.359375 13.296875 -17.078125 C 12.398438 -17.796875 11.332031 -18.15625 10.09375 -18.15625 C 8.863281 -18.15625 7.800781 -17.796875 6.90625 -17.078125 C 6.007812 -16.359375 5.320312 -15.34375 4.84375 -14.03125 C 4.375 -12.71875 4.140625 -11.160156 4.140625 -9.359375 C 4.140625 -7.566406 4.375 -6.007812 4.84375 -4.6875 C 5.320312 -3.375 6.007812 -2.359375 6.90625 -1.640625 C 7.800781 -0.921875 8.863281 -0.5625 10.09375 -0.5625 Z M 10.09375 -0.5625 "/></g></g></g><g fill="#000000" fill-opacity="1"><g transform="translate(240.077026, 85.400373)"><g><path d="M 3 -15.328125 C 3 -16.285156 2.867188 -16.992188 2.609375 -17.453125 C 2.347656 -17.921875 1.816406 -18.15625 1.015625 -18.15625 L 0.453125 -18.15625 L 0.453125 -18.734375 L 7.828125 -18.734375 C 9.648438 -18.734375 11.285156 -18.34375 12.734375 -17.5625 C 14.191406 -16.789062 14.921875 -15.285156 14.921875 -13.046875 C 14.921875 -11.578125 14.539062 -10.441406 13.78125 -9.640625 C 13.03125 -8.847656 12.1875 -8.316406 11.25 -8.046875 C 10.3125 -7.785156 9.457031 -7.65625 8.6875 -7.65625 L 5.5625 -7.65625 L 5.5625 0 L 3 0 Z M 7.6875 -8.65625 C 8.289062 -8.65625 8.929688 -8.8125 9.609375 -9.125 C 10.296875 -9.4375 10.878906 -9.929688 11.359375 -10.609375 C 11.847656 -11.296875 12.09375 -12.15625 12.09375 -13.1875 C 12.09375 -14.226562 11.847656 -15.085938 11.359375 -15.765625 C 10.878906 -16.453125 10.296875 -16.953125 9.609375 -17.265625 C 8.929688 -17.578125 8.289062 -17.734375 7.6875 -17.734375 C 7.03125 -17.734375 6.320312 -17.640625 5.5625 -17.453125 L 5.5625 -8.9375 C 6.320312 -8.75 7.03125 -8.65625 7.6875 -8.65625 Z M 7.6875 -8.65625 "/></g></g></g><g fill="#000000" fill-opacity="1"><g transform="translate(255.626092, 85.400373)"><g/></g></g><g fill="#000000" fill-opacity="1"><g transform="translate(262.606139, 85.400373)"><g><path d="M 8 0.484375 C 6.957031 0.484375 5.9375 0.335938 4.9375 0.046875 C 3.9375 -0.234375 3.117188 -0.632812 2.484375 -1.15625 C 1.847656 -1.6875 1.53125 -2.296875 1.53125 -2.984375 L 1.53125 -6.015625 L 2.046875 -6.015625 C 2.367188 -4.117188 2.992188 -2.75 3.921875 -1.90625 C 4.847656 -1.070312 6.125 -0.65625 7.75 -0.65625 C 8.769531 -0.65625 9.644531 -0.910156 10.375 -1.421875 C 11.101562 -1.929688 11.46875 -2.640625 11.46875 -3.546875 C 11.46875 -4.335938 11.21875 -5.023438 10.71875 -5.609375 C 10.226562 -6.203125 9.4375 -6.820312 8.34375 -7.46875 L 4.859375 -9.53125 C 3.640625 -10.25 2.78125 -10.976562 2.28125 -11.71875 C 1.78125 -12.457031 1.53125 -13.359375 1.53125 -14.421875 C 1.53125 -15.867188 2.035156 -17.03125 3.046875 -17.90625 C 4.054688 -18.789062 5.382812 -19.234375 7.03125 -19.234375 C 8 -19.234375 8.957031 -19.097656 9.90625 -18.828125 C 10.851562 -18.554688 11.632812 -18.160156 12.25 -17.640625 C 12.863281 -17.117188 13.171875 -16.515625 13.171875 -15.828125 L 13.171875 -12.796875 L 12.65625 -12.796875 C 12.332031 -14.691406 11.722656 -16.050781 10.828125 -16.875 C 9.929688 -17.695312 8.664062 -18.109375 7.03125 -18.109375 C 6.164062 -18.109375 5.398438 -17.84375 4.734375 -17.3125 C 4.078125 -16.78125 3.75 -16.085938 3.75 -15.234375 C 3.75 -14.460938 3.988281 -13.820312 4.46875 -13.3125 C 4.945312 -12.800781 5.753906 -12.203125 6.890625 -11.515625 L 10.390625 -9.453125 C 11.671875 -8.671875 12.578125 -7.945312 13.109375 -7.28125 C 13.640625 -6.625 13.90625 -5.785156 13.90625 -4.765625 C 13.90625 -3.179688 13.375 -1.910156 12.3125 -0.953125 C 11.25 0.00390625 9.8125 0.484375 8 0.484375 Z M 8 0.484375 "/></g></g></g><g fill="#000000" fill-opacity="1"><g transform="translate(277.616087, 85.400373)"><g><path d="M 4.703125 -17.59375 C 2.335938 -17.59375 1.15625 -16.503906 1.15625 -14.328125 L 0.59375 -14.328125 L 0.59375 -16.453125 C 0.59375 -17.972656 1.394531 -18.734375 3 -18.734375 L 16.203125 -18.734375 L 16.203125 -17.59375 L 9.8125 -17.59375 L 9.8125 0 L 7.265625 0 L 7.265625 -17.59375 Z M 4.703125 -17.59375 "/></g></g></g><g fill="#000000" fill-opacity="1"><g transform="translate(294.044746, 85.400373)"><g><path d="M 10.09375 0.5625 C 8.34375 0.5625 6.800781 0.128906 5.46875 -0.734375 C 4.132812 -1.609375 3.109375 -2.800781 2.390625 -4.3125 C 1.671875 -5.820312 1.3125 -7.503906 1.3125 -9.359375 C 1.3125 -11.210938 1.671875 -12.894531 2.390625 -14.40625 C 3.109375 -15.925781 4.132812 -17.117188 5.46875 -17.984375 C 6.800781 -18.859375 8.34375 -19.296875 10.09375 -19.296875 C 11.851562 -19.296875 13.398438 -18.859375 14.734375 -17.984375 C 16.066406 -17.117188 17.09375 -15.925781 17.8125 -14.40625 C 18.53125 -12.894531 18.890625 -11.210938 18.890625 -9.359375 C 18.890625 -7.503906 18.53125 -5.820312 17.8125 -4.3125 C 17.09375 -2.800781 16.066406 -1.609375 14.734375 -0.734375 C 13.398438 0.128906 11.851562 0.5625 10.09375 0.5625 Z M 10.09375 -0.5625 C 11.332031 -0.5625 12.398438 -0.921875 13.296875 -1.640625 C 14.191406 -2.359375 14.875 -3.375 15.34375 -4.6875 C 15.820312 -6.007812 16.0625 -7.566406 16.0625 -9.359375 C 16.0625 -11.160156 15.820312 -12.71875 15.34375 -14.03125 C 14.875 -15.34375 14.191406 -16.359375 13.296875 -17.078125 C 12.398438 -17.796875 11.332031 -18.15625 10.09375 -18.15625 C 8.863281 -18.15625 7.800781 -17.796875 6.90625 -17.078125 C 6.007812 -16.359375 5.320312 -15.34375 4.84375 -14.03125 C 4.375 -12.71875 4.140625 -11.160156 4.140625 -9.359375 C 4.140625 -7.566406 4.375 -6.007812 4.84375 -4.6875 C 5.320312 -3.375 6.007812 -2.359375 6.90625 -1.640625 C 7.800781 -0.921875 8.863281 -0.5625 10.09375 -0.5625 Z M 10.09375 -0.5625 "/></g></g></g><g fill="#000000" fill-opacity="1"><g transform="translate(314.13368, 85.400373)"><g><path d="M 15.5 0.28125 C 14.488281 0.28125 13.609375 -0.015625 12.859375 -0.609375 C 12.117188 -1.203125 11.296875 -2.273438 10.390625 -3.828125 L 7.546875 -8.65625 L 5.5625 -8.65625 L 5.5625 0 L 3 0 L 3 -15.328125 C 3 -16.285156 2.867188 -16.992188 2.609375 -17.453125 C 2.347656 -17.921875 1.816406 -18.15625 1.015625 -18.15625 L 0.453125 -18.15625 L 0.453125 -18.734375 L 7.828125 -18.734375 C 9.628906 -18.734375 11.257812 -18.375 12.71875 -17.65625 C 14.1875 -16.945312 14.921875 -15.601562 14.921875 -13.625 C 14.921875 -11.101562 13.410156 -9.492188 10.390625 -8.796875 L 13.359375 -3.828125 C 14.066406 -2.660156 14.695312 -1.84375 15.25 -1.375 C 15.8125 -0.914062 16.457031 -0.644531 17.1875 -0.5625 L 17.1875 0 C 17.019531 0.0703125 16.78125 0.132812 16.46875 0.1875 C 16.15625 0.25 15.832031 0.28125 15.5 0.28125 Z M 7.6875 -9.640625 C 8.269531 -9.640625 8.90625 -9.78125 9.59375 -10.0625 C 10.289062 -10.351562 10.878906 -10.800781 11.359375 -11.40625 C 11.847656 -12.007812 12.09375 -12.75 12.09375 -13.625 C 12.09375 -14.550781 11.847656 -15.320312 11.359375 -15.9375 C 10.878906 -16.550781 10.289062 -17.003906 9.59375 -17.296875 C 8.90625 -17.585938 8.269531 -17.734375 7.6875 -17.734375 C 7.03125 -17.734375 6.320312 -17.640625 5.5625 -17.453125 L 5.5625 -9.9375 C 6.320312 -9.738281 7.03125 -9.640625 7.6875 -9.640625 Z M 7.6875 -9.640625 "/></g></g></g><g fill="#000000" fill-opacity="1"><g transform="translate(330.902823, 85.400373)"><g><path d="M 3 -15.328125 C 3 -16.285156 2.867188 -16.992188 2.609375 -17.453125 C 2.347656 -17.921875 1.816406 -18.15625 1.015625 -18.15625 L 0.453125 -18.15625 L 0.453125 -18.734375 L 12.546875 -18.734375 C 14.148438 -18.734375 14.953125 -17.972656 14.953125 -16.453125 L 14.953125 -14.328125 L 14.390625 -14.328125 C 14.390625 -16.503906 13.207031 -17.59375 10.84375 -17.59375 L 5.5625 -17.59375 L 5.5625 -10.21875 L 13.21875 -10.21875 L 13.21875 -9.078125 L 5.5625 -9.078125 L 5.5625 -1.140625 L 10.53125 -1.140625 C 11.832031 -1.140625 12.851562 -1.375 13.59375 -1.84375 C 14.332031 -2.3125 14.914062 -3.113281 15.34375 -4.25 L 15.921875 -4.109375 L 14.921875 -1.421875 C 14.585938 -0.472656 13.878906 0 12.796875 0 L 3 0 Z M 3 -15.328125 "/></g></g></g><g fill="#000000" fill-opacity="1"><g transform="translate(182.585375, 121.345193)"><g><path d="M 2.03125 -10.359375 C 2.03125 -11.003906 1.941406 -11.484375 1.765625 -11.796875 C 1.585938 -12.109375 1.226562 -12.265625 0.6875 -12.265625 L 0.3125 -12.265625 L 0.3125 -12.65625 L 5.296875 -12.65625 C 6.679688 -12.65625 7.890625 -12.421875 8.921875 -11.953125 C 9.953125 -11.492188 10.46875 -10.609375 10.46875 -9.296875 C 10.46875 -8.691406 10.257812 -8.144531 9.84375 -7.65625 C 9.4375 -7.175781 8.8125 -6.796875 7.96875 -6.515625 C 9.144531 -6.328125 9.96875 -5.976562 10.4375 -5.46875 C 10.90625 -4.96875 11.140625 -4.296875 11.140625 -3.453125 C 11.140625 -2.160156 10.628906 -1.257812 9.609375 -0.75 C 8.597656 -0.25 7.347656 0 5.859375 0 L 2.03125 0 Z M 5.578125 -6.8125 C 6.097656 -6.8125 6.59375 -6.910156 7.0625 -7.109375 C 7.53125 -7.304688 7.910156 -7.597656 8.203125 -7.984375 C 8.492188 -8.367188 8.640625 -8.835938 8.640625 -9.390625 C 8.640625 -9.960938 8.46875 -10.441406 8.125 -10.828125 C 7.78125 -11.222656 7.34375 -11.515625 6.8125 -11.703125 C 6.28125 -11.890625 5.742188 -11.984375 5.203125 -11.984375 C 4.753906 -11.984375 4.269531 -11.921875 3.75 -11.796875 L 3.75 -6.8125 Z M 5.578125 -0.671875 C 6.742188 -0.671875 7.640625 -0.898438 8.265625 -1.359375 C 8.898438 -1.816406 9.21875 -2.484375 9.21875 -3.359375 C 9.21875 -4.222656 8.90625 -4.882812 8.28125 -5.34375 C 7.664062 -5.8125 6.765625 -6.046875 5.578125 -6.046875 L 3.75 -6.046875 L 3.75 -0.9375 C 4.363281 -0.757812 4.972656 -0.671875 5.578125 -0.671875 Z M 5.578125 -0.671875 "/></g></g></g><g fill="#000000" fill-opacity="1"><g transform="translate(196.90262, 121.345193)"><g><path d="M 4.890625 0.1875 C 4.015625 0.1875 3.273438 -0.015625 2.671875 -0.421875 C 2.078125 -0.835938 1.625 -1.398438 1.3125 -2.109375 C 1.007812 -2.828125 0.859375 -3.625 0.859375 -4.5 C 0.859375 -5.375 1.007812 -6.164062 1.3125 -6.875 C 1.625 -7.59375 2.070312 -8.160156 2.65625 -8.578125 C 3.238281 -8.992188 3.921875 -9.203125 4.703125 -9.203125 C 5.992188 -9.203125 6.953125 -8.835938 7.578125 -8.109375 C 8.210938 -7.390625 8.53125 -6.347656 8.53125 -4.984375 L 8.5 -4.21875 L 2.6875 -4.21875 C 2.6875 -3.144531 2.914062 -2.269531 3.375 -1.59375 C 3.832031 -0.914062 4.460938 -0.578125 5.265625 -0.578125 C 5.867188 -0.578125 6.378906 -0.703125 6.796875 -0.953125 C 7.210938 -1.210938 7.597656 -1.597656 7.953125 -2.109375 L 8.34375 -1.828125 C 7.914062 -1.117188 7.421875 -0.601562 6.859375 -0.28125 C 6.296875 0.03125 5.640625 0.1875 4.890625 0.1875 Z M 6.703125 -4.984375 C 6.703125 -6.109375 6.535156 -6.960938 6.203125 -7.546875 C 5.878906 -8.140625 5.378906 -8.4375 4.703125 -8.4375 C 4.316406 -8.4375 3.96875 -8.285156 3.65625 -7.984375 C 3.351562 -7.679688 3.113281 -7.269531 2.9375 -6.75 C 2.769531 -6.226562 2.6875 -5.640625 2.6875 -4.984375 Z M 6.703125 -4.984375 "/></g></g></g><g fill="#000000" fill-opacity="1"><g transform="translate(208.651603, 121.345193)"><g><path d="M 4.390625 0.1875 C 2.921875 0.1875 1.929688 -0.0664062 1.421875 -0.578125 C 1.203125 -0.796875 1.066406 -1.039062 1.015625 -1.3125 C 0.960938 -1.582031 0.9375 -2.007812 0.9375 -2.59375 L 1.328125 -2.59375 C 1.441406 -1.945312 1.71875 -1.445312 2.15625 -1.09375 C 2.59375 -0.75 3.207031 -0.578125 4 -0.578125 C 4.707031 -0.578125 5.234375 -0.695312 5.578125 -0.9375 C 5.929688 -1.175781 6.109375 -1.503906 6.109375 -1.921875 C 6.109375 -2.285156 5.972656 -2.601562 5.703125 -2.875 C 5.429688 -3.144531 4.992188 -3.398438 4.390625 -3.640625 L 3.234375 -4.125 C 2.472656 -4.425781 1.898438 -4.78125 1.515625 -5.1875 C 1.128906 -5.601562 0.9375 -6.109375 0.9375 -6.703125 C 0.9375 -7.484375 1.226562 -8.09375 1.8125 -8.53125 C 2.40625 -8.976562 3.171875 -9.203125 4.109375 -9.203125 C 5.515625 -9.203125 6.472656 -8.945312 6.984375 -8.4375 C 7.191406 -8.21875 7.320312 -7.972656 7.375 -7.703125 C 7.425781 -7.429688 7.453125 -7.003906 7.453125 -6.421875 L 7.078125 -6.421875 C 6.972656 -7.054688 6.703125 -7.550781 6.265625 -7.90625 C 5.835938 -8.257812 5.242188 -8.4375 4.484375 -8.4375 C 3.878906 -8.4375 3.40625 -8.3125 3.0625 -8.0625 C 2.726562 -7.8125 2.5625 -7.488281 2.5625 -7.09375 C 2.5625 -6.425781 3.078125 -5.882812 4.109375 -5.46875 L 5.25 -4.984375 C 6.125 -4.628906 6.757812 -4.25 7.15625 -3.84375 C 7.550781 -3.4375 7.75 -2.921875 7.75 -2.296875 C 7.75 -1.515625 7.429688 -0.90625 6.796875 -0.46875 C 6.171875 -0.03125 5.367188 0.1875 4.390625 0.1875 Z M 4.390625 0.1875 "/></g></g></g><g fill="#000000" fill-opacity="1"><g transform="translate(219.5956, 121.345193)"><g><path d="M 4.046875 0.1875 C 3.328125 0.1875 2.765625 -0.015625 2.359375 -0.421875 C 1.953125 -0.828125 1.75 -1.453125 1.75 -2.296875 L 1.75 -8.25 L 0.40625 -8.25 L 0.40625 -9.015625 L 1.75 -9.015625 L 1.75 -10.734375 L 2.703125 -11.890625 L 3.46875 -11.890625 L 3.46875 -9.015625 L 5.765625 -9.015625 L 5.765625 -8.25 L 3.46875 -8.25 L 3.46875 -2.296875 C 3.46875 -1.148438 3.914062 -0.578125 4.8125 -0.578125 C 5.113281 -0.578125 5.367188 -0.609375 5.578125 -0.671875 C 5.796875 -0.734375 6.019531 -0.828125 6.25 -0.953125 L 6.4375 -0.578125 C 6.144531 -0.359375 5.816406 -0.175781 5.453125 -0.03125 C 5.097656 0.113281 4.628906 0.1875 4.046875 0.1875 Z M 4.046875 0.1875 "/></g></g></g><g fill="#000000" fill-opacity="1"><g transform="translate(228.469661, 121.345193)"><g/></g></g><g fill="#000000" fill-opacity="1"><g transform="translate(235.657083, 121.345193)"><g><path d="M 2.03125 -10.359375 C 2.03125 -11.003906 1.941406 -11.484375 1.765625 -11.796875 C 1.585938 -12.109375 1.226562 -12.265625 0.6875 -12.265625 L 0.3125 -12.265625 L 0.3125 -12.65625 L 7.953125 -12.65625 C 9.046875 -12.65625 9.59375 -12.144531 9.59375 -11.125 L 9.59375 -9.6875 L 9.203125 -9.6875 C 9.203125 -11.15625 8.40625 -11.890625 6.8125 -11.890625 L 3.75 -11.890625 L 3.75 -6.8125 L 8.09375 -6.8125 L 8.09375 -6.046875 L 3.75 -6.046875 L 3.75 0 L 2.03125 0 Z M 2.03125 -10.359375 "/></g></g></g><g fill="#000000" fill-opacity="1"><g transform="translate(248.153543, 121.345193)"><g><path d="M 3.53125 0.1875 C 3.125 0.1875 2.707031 0.101562 2.28125 -0.0625 C 1.863281 -0.238281 1.503906 -0.523438 1.203125 -0.921875 C 0.898438 -1.316406 0.75 -1.84375 0.75 -2.5 C 0.75 -3.46875 1.195312 -4.15625 2.09375 -4.5625 C 3 -4.96875 4.179688 -5.171875 5.640625 -5.171875 L 6.21875 -5.171875 C 6.21875 -6.429688 6.039062 -7.289062 5.6875 -7.75 C 5.34375 -8.207031 4.847656 -8.4375 4.203125 -8.4375 C 3.617188 -8.4375 3.15625 -8.3125 2.8125 -8.0625 C 2.46875 -7.820312 2.226562 -7.40625 2.09375 -6.8125 L 1.234375 -6.8125 C 1.234375 -7.238281 1.253906 -7.578125 1.296875 -7.828125 C 1.347656 -8.078125 1.484375 -8.3125 1.703125 -8.53125 C 1.929688 -8.757812 2.3125 -8.925781 2.84375 -9.03125 C 3.375 -9.144531 3.953125 -9.203125 4.578125 -9.203125 C 5.617188 -9.203125 6.4375 -8.921875 7.03125 -8.359375 C 7.632812 -7.804688 7.9375 -6.742188 7.9375 -5.171875 L 7.9375 0 L 6.984375 0 L 6.3125 -0.859375 L 6.21875 -0.859375 C 5.976562 -0.566406 5.632812 -0.316406 5.1875 -0.109375 C 4.75 0.0859375 4.195312 0.1875 3.53125 0.1875 Z M 4.390625 -0.671875 C 4.804688 -0.671875 5.15625 -0.769531 5.4375 -0.96875 C 5.71875 -1.175781 5.976562 -1.460938 6.21875 -1.828125 L 6.21875 -4.40625 L 5.640625 -4.40625 C 4.691406 -4.40625 3.941406 -4.226562 3.390625 -3.875 C 2.835938 -3.53125 2.5625 -3.070312 2.5625 -2.5 C 2.5625 -1.90625 2.738281 -1.453125 3.09375 -1.140625 C 3.445312 -0.828125 3.878906 -0.671875 4.390625 -0.671875 Z M 4.390625 -0.671875 "/></g></g></g><g fill="#000000" fill-opacity="1"><g transform="translate(259.768365, 121.345193)"><g><path d="M 4.390625 0.1875 C 2.921875 0.1875 1.929688 -0.0664062 1.421875 -0.578125 C 1.203125 -0.796875 1.066406 -1.039062 1.015625 -1.3125 C 0.960938 -1.582031 0.9375 -2.007812 0.9375 -2.59375 L 1.328125 -2.59375 C 1.441406 -1.945312 1.71875 -1.445312 2.15625 -1.09375 C 2.59375 -0.75 3.207031 -0.578125 4 -0.578125 C 4.707031 -0.578125 5.234375 -0.695312 5.578125 -0.9375 C 5.929688 -1.175781 6.109375 -1.503906 6.109375 -1.921875 C 6.109375 -2.285156 5.972656 -2.601562 5.703125 -2.875 C 5.429688 -3.144531 4.992188 -3.398438 4.390625 -3.640625 L 3.234375 -4.125 C 2.472656 -4.425781 1.898438 -4.78125 1.515625 -5.1875 C 1.128906 -5.601562 0.9375 -6.109375 0.9375 -6.703125 C 0.9375 -7.484375 1.226562 -8.09375 1.8125 -8.53125 C 2.40625 -8.976562 3.171875 -9.203125 4.109375 -9.203125 C 5.515625 -9.203125 6.472656 -8.945312 6.984375 -8.4375 C 7.191406 -8.21875 7.320312 -7.972656 7.375 -7.703125 C 7.425781 -7.429688 7.453125 -7.003906 7.453125 -6.421875 L 7.078125 -6.421875 C 6.972656 -7.054688 6.703125 -7.550781 6.265625 -7.90625 C 5.835938 -8.257812 5.242188 -8.4375 4.484375 -8.4375 C 3.878906 -8.4375 3.40625 -8.3125 3.0625 -8.0625 C 2.726562 -7.8125 2.5625 -7.488281 2.5625 -7.09375 C 2.5625 -6.425781 3.078125 -5.882812 4.109375 -5.46875 L 5.25 -4.984375 C 6.125 -4.628906 6.757812 -4.25 7.15625 -3.84375 C 7.550781 -3.4375 7.75 -2.921875 7.75 -2.296875 C 7.75 -1.515625 7.429688 -0.90625 6.796875 -0.46875 C 6.171875 -0.03125 5.367188 0.1875 4.390625 0.1875 Z M 4.390625 0.1875 "/></g></g></g><g fill="#000000" fill-opacity="1"><g transform="translate(270.712366, 121.345193)"><g><path d="M 1.375 -10.359375 C 1.375 -11.003906 1.285156 -11.484375 1.109375 -11.796875 C 0.929688 -12.109375 0.570312 -12.265625 0.03125 -12.265625 L -0.34375 -12.265625 L -0.34375 -12.65625 L 1.375 -12.65625 C 1.851562 -12.65625 2.207031 -12.59375 2.4375 -12.46875 C 2.675781 -12.351562 2.847656 -12.132812 2.953125 -11.8125 C 3.054688 -11.488281 3.109375 -11.003906 3.109375 -10.359375 L 3.109375 -8.25 C 3.378906 -8.507812 3.726562 -8.734375 4.15625 -8.921875 C 4.582031 -9.109375 5.0625 -9.203125 5.59375 -9.203125 C 6.550781 -9.203125 7.332031 -8.945312 7.9375 -8.4375 C 8.550781 -7.925781 8.859375 -7.03125 8.859375 -5.75 L 8.859375 0 L 7.125 0 L 7.125 -5.75 C 7.125 -6.644531 6.921875 -7.300781 6.515625 -7.71875 C 6.117188 -8.132812 5.617188 -8.34375 5.015625 -8.34375 C 4.335938 -8.34375 3.703125 -8.003906 3.109375 -7.328125 L 3.109375 0 L 1.375 0 Z M 1.375 -10.359375 "/></g></g></g><g fill="#000000" fill-opacity="1"><g transform="translate(283.24716, 121.345193)"><g><path d="M 2.390625 -10.15625 C 2.097656 -10.15625 1.847656 -10.273438 1.640625 -10.515625 C 1.429688 -10.765625 1.328125 -11.054688 1.328125 -11.390625 C 1.328125 -11.660156 1.40625 -11.867188 1.5625 -12.015625 C 1.71875 -12.171875 1.929688 -12.25 2.203125 -12.25 C 2.492188 -12.25 2.742188 -12.125 2.953125 -11.875 C 3.171875 -11.632812 3.28125 -11.351562 3.28125 -11.03125 C 3.28125 -10.757812 3.195312 -10.546875 3.03125 -10.390625 C 2.875 -10.234375 2.660156 -10.15625 2.390625 -10.15625 Z M 1.671875 -6.703125 C 1.671875 -7.359375 1.578125 -7.84375 1.390625 -8.15625 C 1.210938 -8.46875 0.859375 -8.625 0.328125 -8.625 L -0.0625 -8.625 L -0.0625 -9.015625 L 1.671875 -9.015625 C 2.140625 -9.015625 2.492188 -8.953125 2.734375 -8.828125 C 2.972656 -8.703125 3.140625 -8.476562 3.234375 -8.15625 C 3.335938 -7.84375 3.390625 -7.359375 3.390625 -6.703125 L 3.390625 0 L 1.671875 0 Z M 1.671875 -6.703125 "/></g></g></g><g fill="#000000" fill-opacity="1"><g transform="translate(290.357928, 121.345193)"><g><path d="M 5.078125 0.1875 C 4.210938 0.1875 3.457031 -0.015625 2.8125 -0.421875 C 2.175781 -0.835938 1.691406 -1.40625 1.359375 -2.125 C 1.023438 -2.84375 0.859375 -3.632812 0.859375 -4.5 C 0.859375 -5.375 1.023438 -6.164062 1.359375 -6.875 C 1.691406 -7.59375 2.175781 -8.160156 2.8125 -8.578125 C 3.457031 -8.992188 4.210938 -9.203125 5.078125 -9.203125 C 5.953125 -9.203125 6.707031 -8.992188 7.34375 -8.578125 C 7.976562 -8.160156 8.460938 -7.59375 8.796875 -6.875 C 9.128906 -6.164062 9.296875 -5.375 9.296875 -4.5 C 9.296875 -3.632812 9.128906 -2.84375 8.796875 -2.125 C 8.460938 -1.40625 7.976562 -0.835938 7.34375 -0.421875 C 6.707031 -0.015625 5.953125 0.1875 5.078125 0.1875 Z M 5.078125 -0.578125 C 5.554688 -0.578125 5.972656 -0.75 6.328125 -1.09375 C 6.691406 -1.4375 6.972656 -1.90625 7.171875 -2.5 C 7.378906 -3.101562 7.484375 -3.769531 7.484375 -4.5 C 7.484375 -5.226562 7.378906 -5.894531 7.171875 -6.5 C 6.972656 -7.101562 6.691406 -7.578125 6.328125 -7.921875 C 5.972656 -8.265625 5.554688 -8.4375 5.078125 -8.4375 C 4.609375 -8.4375 4.191406 -8.265625 3.828125 -7.921875 C 3.460938 -7.578125 3.179688 -7.101562 2.984375 -6.5 C 2.785156 -5.894531 2.6875 -5.226562 2.6875 -4.5 C 2.6875 -3.769531 2.785156 -3.101562 2.984375 -2.5 C 3.179688 -1.90625 3.460938 -1.4375 3.828125 -1.09375 C 4.191406 -0.75 4.609375 -0.578125 5.078125 -0.578125 Z M 5.078125 -0.578125 "/></g></g></g><g fill="#000000" fill-opacity="1"><g transform="translate(302.911899, 121.345193)"><g><path d="M 1.671875 -6.703125 C 1.671875 -7.359375 1.578125 -7.84375 1.390625 -8.15625 C 1.210938 -8.46875 0.859375 -8.625 0.328125 -8.625 L -0.0625 -8.625 L -0.0625 -9.015625 L 1.671875 -9.015625 C 2.140625 -9.015625 2.5 -8.945312 2.75 -8.8125 C 3 -8.6875 3.179688 -8.5 3.296875 -8.25 L 3.390625 -8.25 C 3.660156 -8.507812 4.007812 -8.734375 4.4375 -8.921875 C 4.863281 -9.109375 5.347656 -9.203125 5.890625 -9.203125 C 6.847656 -9.203125 7.628906 -8.945312 8.234375 -8.4375 C 8.835938 -7.925781 9.140625 -7.03125 9.140625 -5.75 L 9.140625 0 L 7.421875 0 L 7.421875 -5.75 C 7.421875 -6.644531 7.21875 -7.300781 6.8125 -7.71875 C 6.414062 -8.132812 5.914062 -8.34375 5.3125 -8.34375 C 4.632812 -8.34375 3.992188 -8.003906 3.390625 -7.328125 L 3.390625 0 L 1.671875 0 Z M 1.671875 -6.703125 "/></g></g></g><g fill="#000000" fill-opacity="1"><g transform="translate(221.273703, 147.245329)"><g><path d="M 5.40625 0.328125 C 4.707031 0.328125 4.015625 0.226562 3.328125 0.03125 C 2.648438 -0.15625 2.097656 -0.425781 1.671875 -0.78125 C 1.242188 -1.144531 1.03125 -1.554688 1.03125 -2.015625 L 1.03125 -4.0625 L 1.375 -4.0625 C 1.59375 -2.78125 2.015625 -1.851562 2.640625 -1.28125 C 3.265625 -0.71875 4.128906 -0.4375 5.234375 -0.4375 C 5.921875 -0.4375 6.507812 -0.609375 7 -0.953125 C 7.5 -1.296875 7.75 -1.773438 7.75 -2.390625 C 7.75 -2.929688 7.582031 -3.398438 7.25 -3.796875 C 6.914062 -4.191406 6.378906 -4.609375 5.640625 -5.046875 L 3.28125 -6.4375 C 2.457031 -6.925781 1.875 -7.421875 1.53125 -7.921875 C 1.195312 -8.421875 1.03125 -9.023438 1.03125 -9.734375 C 1.03125 -10.722656 1.375 -11.515625 2.0625 -12.109375 C 2.75 -12.703125 3.644531 -13 4.75 -13 C 5.40625 -13 6.050781 -12.90625 6.6875 -12.71875 C 7.332031 -12.53125 7.859375 -12.257812 8.265625 -11.90625 C 8.679688 -11.5625 8.890625 -11.160156 8.890625 -10.703125 L 8.890625 -8.640625 L 8.546875 -8.640625 C 8.328125 -9.921875 7.914062 -10.835938 7.3125 -11.390625 C 6.707031 -11.953125 5.851562 -12.234375 4.75 -12.234375 C 4.164062 -12.234375 3.648438 -12.050781 3.203125 -11.6875 C 2.753906 -11.332031 2.53125 -10.867188 2.53125 -10.296875 C 2.53125 -9.773438 2.691406 -9.335938 3.015625 -8.984375 C 3.347656 -8.640625 3.894531 -8.238281 4.65625 -7.78125 L 7.015625 -6.390625 C 7.890625 -5.859375 8.503906 -5.367188 8.859375 -4.921875 C 9.210938 -4.472656 9.390625 -3.90625 9.390625 -3.21875 C 9.390625 -2.144531 9.03125 -1.285156 8.3125 -0.640625 C 7.601562 0.00390625 6.632812 0.328125 5.40625 0.328125 Z M 5.40625 0.328125 "/></g></g></g><g fill="#000000" fill-opacity="1"><g transform="translate(233.885165, 147.245329)"><g><path d="M 4.046875 0.1875 C 3.328125 0.1875 2.765625 -0.015625 2.359375 -0.421875 C 1.953125 -0.828125 1.75 -1.453125 1.75 -2.296875 L 1.75 -8.25 L 0.40625 -8.25 L 0.40625 -9.015625 L 1.75 -9.015625 L 1.75 -10.734375 L 2.703125 -11.890625 L 3.46875 -11.890625 L 3.46875 -9.015625 L 5.765625 -9.015625 L 5.765625 -8.25 L 3.46875 -8.25 L 3.46875 -2.296875 C 3.46875 -1.148438 3.914062 -0.578125 4.8125 -0.578125 C 5.113281 -0.578125 5.367188 -0.609375 5.578125 -0.671875 C 5.796875 -0.734375 6.019531 -0.828125 6.25 -0.953125 L 6.4375 -0.578125 C 6.144531 -0.359375 5.816406 -0.175781 5.453125 -0.03125 C 5.097656 0.113281 4.628906 0.1875 4.046875 0.1875 Z M 4.046875 0.1875 "/></g></g></g><g fill="#000000" fill-opacity="1"><g transform="translate(242.759224, 147.245329)"><g><path d="M 5.078125 0.1875 C 4.210938 0.1875 3.457031 -0.015625 2.8125 -0.421875 C 2.175781 -0.835938 1.691406 -1.40625 1.359375 -2.125 C 1.023438 -2.84375 0.859375 -3.632812 0.859375 -4.5 C 0.859375 -5.375 1.023438 -6.164062 1.359375 -6.875 C 1.691406 -7.59375 2.175781 -8.160156 2.8125 -8.578125 C 3.457031 -8.992188 4.210938 -9.203125 5.078125 -9.203125 C 5.953125 -9.203125 6.707031 -8.992188 7.34375 -8.578125 C 7.976562 -8.160156 8.460938 -7.59375 8.796875 -6.875 C 9.128906 -6.164062 9.296875 -5.375 9.296875 -4.5 C 9.296875 -3.632812 9.128906 -2.84375 8.796875 -2.125 C 8.460938 -1.40625 7.976562 -0.835938 7.34375 -0.421875 C 6.707031 -0.015625 5.953125 0.1875 5.078125 0.1875 Z M 5.078125 -0.578125 C 5.554688 -0.578125 5.972656 -0.75 6.328125 -1.09375 C 6.691406 -1.4375 6.972656 -1.90625 7.171875 -2.5 C 7.378906 -3.101562 7.484375 -3.769531 7.484375 -4.5 C 7.484375 -5.226562 7.378906 -5.894531 7.171875 -6.5 C 6.972656 -7.101562 6.691406 -7.578125 6.328125 -7.921875 C 5.972656 -8.265625 5.554688 -8.4375 5.078125 -8.4375 C 4.609375 -8.4375 4.191406 -8.265625 3.828125 -7.921875 C 3.460938 -7.578125 3.179688 -7.101562 2.984375 -6.5 C 2.785156 -5.894531 2.6875 -5.226562 2.6875 -4.5 C 2.6875 -3.769531 2.785156 -3.101562 2.984375 -2.5 C 3.179688 -1.90625 3.460938 -1.4375 3.828125 -1.09375 C 4.191406 -0.75 4.609375 -0.578125 5.078125 -0.578125 Z M 5.078125 -0.578125 "/></g></g></g><g fill="#000000" fill-opacity="1"><g transform="translate(255.31319, 147.245329)"><g><path d="M 1.53125 -6.703125 C 1.53125 -7.359375 1.441406 -7.84375 1.265625 -8.15625 C 1.085938 -8.46875 0.726562 -8.625 0.1875 -8.625 L 0 -8.625 L 0 -9.015625 L 1.53125 -9.015625 C 2.019531 -9.015625 2.390625 -8.945312 2.640625 -8.8125 C 2.890625 -8.675781 3.0625 -8.453125 3.15625 -8.140625 L 3.265625 -8.140625 C 3.492188 -8.441406 3.800781 -8.691406 4.1875 -8.890625 C 4.582031 -9.097656 5.039062 -9.203125 5.5625 -9.203125 C 6.070312 -9.203125 6.453125 -9.109375 6.703125 -8.921875 C 6.921875 -8.753906 7.144531 -8.460938 7.375 -8.046875 L 6.609375 -7.484375 C 6.472656 -7.671875 6.269531 -7.8125 6 -7.90625 C 5.726562 -8 5.421875 -8.046875 5.078125 -8.046875 C 4.691406 -8.046875 4.335938 -7.957031 4.015625 -7.78125 C 3.703125 -7.613281 3.453125 -7.382812 3.265625 -7.09375 L 3.265625 0 L 1.53125 0 Z M 1.53125 -6.703125 "/></g></g></g><g fill="#000000" fill-opacity="1"><g transform="translate(265.318043, 147.245329)"><g><path d="M 4.890625 0.1875 C 4.015625 0.1875 3.273438 -0.015625 2.671875 -0.421875 C 2.078125 -0.835938 1.625 -1.398438 1.3125 -2.109375 C 1.007812 -2.828125 0.859375 -3.625 0.859375 -4.5 C 0.859375 -5.375 1.007812 -6.164062 1.3125 -6.875 C 1.625 -7.59375 2.070312 -8.160156 2.65625 -8.578125 C 3.238281 -8.992188 3.921875 -9.203125 4.703125 -9.203125 C 5.992188 -9.203125 6.953125 -8.835938 7.578125 -8.109375 C 8.210938 -7.390625 8.53125 -6.347656 8.53125 -4.984375 L 8.5 -4.21875 L 2.6875 -4.21875 C 2.6875 -3.144531 2.914062 -2.269531 3.375 -1.59375 C 3.832031 -0.914062 4.460938 -0.578125 5.265625 -0.578125 C 5.867188 -0.578125 6.378906 -0.703125 6.796875 -0.953125 C 7.210938 -1.210938 7.597656 -1.597656 7.953125 -2.109375 L 8.34375 -1.828125 C 7.914062 -1.117188 7.421875 -0.601562 6.859375 -0.28125 C 6.296875 0.03125 5.640625 0.1875 4.890625 0.1875 Z M 6.703125 -4.984375 C 6.703125 -6.109375 6.535156 -6.960938 6.203125 -7.546875 C 5.878906 -8.140625 5.378906 -8.4375 4.703125 -8.4375 C 4.316406 -8.4375 3.96875 -8.285156 3.65625 -7.984375 C 3.351562 -7.679688 3.113281 -7.269531 2.9375 -6.75 C 2.769531 -6.226562 2.6875 -5.640625 2.6875 -4.984375 Z M 6.703125 -4.984375 "/></g></g></g></svg>