<?xml version="1.0" encoding="iso-8859-1"?>
<!-- Generator: Adobe Illustrator 16.0.0, SVG Export Plug-In . SVG Version: 6.00 Build 0)  -->
<!DOCTYPE svg PUBLIC "-//W3C//DTD SVG 1.1//EN" "http://www.w3.org/Graphics/SVG/1.1/DTD/svg11.dtd">
<svg version="1.1" id="Capa_1" xmlns="http://www.w3.org/2000/svg" xmlns:xlink="http://www.w3.org/1999/xlink" x="0px" y="0px"
	 width="555.166px" height="555.166px" viewBox="0 0 555.166 555.166" style="enable-background:new 0 0 555.166 555.166;"
	 xml:space="preserve">
<g>
	<path d="M294.202,61.183V48.759c0-9.18-7.439-16.619-16.619-16.619c-9.18,0-16.619,7.439-16.619,16.619v12.424
		C122.217,68.187,10.839,162.279,0,280.646c13.491-9.683,33.959-15.864,56.882-15.864c35.673,0,65.396,14.96,72.121,34.81h2.958
		c6.896-19.721,36.53-34.551,72.046-34.551c22.991,0,43.466,6.236,56.957,15.966v166.668c0,23.216-18.891,42.105-42.105,42.105
		c-23.215,0-42.106-18.89-42.106-42.105c0-9.18-7.439-16.619-16.619-16.619c-9.18,0-16.619,7.439-16.619,16.619
		c0,41.548,33.803,75.352,75.351,75.352c41.548,0,75.337-33.804,75.337-75.352V280.735c13.484-9.724,33.952-15.953,56.93-15.953
		c35.673,0,65.396,14.96,72.121,34.81h2.958c6.895-19.721,36.529-34.551,72.046-34.551c22.937,0,43.418,6.188,56.909,15.885
		C544.477,162.428,433.045,68.201,294.202,61.183z"/>
</g>
<g>
</g>
<g>
</g>
<g>
</g>
<g>
</g>
<g>
</g>
<g>
</g>
<g>
</g>
<g>
</g>
<g>
</g>
<g>
</g>
<g>
</g>
<g>
</g>
<g>
</g>
<g>
</g>
<g>
</g>
</svg>
