<svg xmlns="http://www.w3.org/2000/svg" xmlns:xlink="http://www.w3.org/1999/xlink" width="500" zoomAndPan="magnify" viewBox="0 0 375 374.999991" height="500" preserveAspectRatio="xMidYMid meet" version="1.0"><defs><g/><clipPath id="3d93b58a68"><path d="M 30.050781 59.53125 L 342 59.53125 L 342 168 L 30.050781 168 Z M 30.050781 59.53125 " clip-rule="nonzero"/></clipPath><clipPath id="99ea94f3a9"><path d="M 180 162 L 192 162 L 192 211.03125 L 180 211.03125 Z M 180 162 " clip-rule="nonzero"/></clipPath></defs><g fill="#1a1a1a" fill-opacity="1"><g transform="translate(6.11044, 271.61853)"><g><path d="M 22.75 1.117188 C 28.261719 1.117188 33.210938 -0.796875 36.5625 -4.710938 L 37.839844 0 L 46.859375 0 L 46.859375 -41.910156 L 34.726562 -41.910156 L 34.726562 -20.039062 C 34.726562 -13.410156 31.132812 -9.339844 25.625 -9.339844 C 20.515625 -9.339844 17.402344 -12.933594 17.402344 -19.078125 L 17.402344 -41.910156 L 5.269531 -41.910156 L 5.269531 -17.882812 C 5.269531 -6.226562 11.894531 1.117188 22.75 1.117188 Z M 22.75 1.117188 "/></g></g></g><g fill="#1a1a1a" fill-opacity="1"><g transform="translate(56.643737, 271.61853)"><g><path d="M 6.066406 0 L 18.203125 0 L 18.203125 -22.671875 C 18.203125 -28.738281 21.554688 -32.652344 26.742188 -32.652344 C 31.773438 -32.652344 34.886719 -28.898438 34.886719 -22.992188 L 34.886719 0 L 46.859375 0 L 46.859375 -22.671875 C 46.859375 -28.738281 50.214844 -32.652344 55.402344 -32.652344 C 60.433594 -32.652344 63.546875 -28.898438 63.546875 -22.992188 L 63.546875 0 L 75.679688 0 L 75.679688 -24.429688 C 75.679688 -35.925781 68.816406 -43.027344 58.117188 -43.027344 C 51.730469 -43.027344 46.460938 -40.554688 43.027344 -36.164062 C 40.074219 -40.632812 35.207031 -43.027344 29.21875 -43.027344 C 23.871094 -43.027344 19.320312 -41.191406 16.285156 -37.601562 L 15.089844 -41.910156 L 6.066406 -41.910156 Z M 6.066406 0 "/></g></g></g><g fill="#1a1a1a" fill-opacity="1"><g transform="translate(135.197876, 271.61853)"><g><path d="M 31.453125 1.117188 C 43.988281 1.117188 52.847656 -7.984375 52.847656 -20.996094 C 52.847656 -33.847656 43.988281 -43.027344 31.453125 -43.027344 C 26.265625 -43.027344 21.714844 -41.433594 18.203125 -38.636719 L 18.203125 -59.074219 L 6.066406 -59.074219 L 6.066406 0 L 15.089844 0 L 16.445312 -4.789062 C 20.199219 -1.039062 25.386719 1.117188 31.453125 1.117188 Z M 17.722656 -20.996094 C 17.722656 -27.78125 22.511719 -32.652344 29.296875 -32.652344 C 36.164062 -32.652344 40.875 -27.78125 40.875 -20.996094 C 40.875 -14.128906 36.164062 -9.339844 29.296875 -9.339844 C 22.511719 -9.339844 17.722656 -14.128906 17.722656 -20.996094 Z M 17.722656 -20.996094 "/></g></g></g><g fill="#1a1a1a" fill-opacity="1"><g transform="translate(188.764777, 271.61853)"><g><path d="M 6.066406 0 L 18.203125 0 L 18.203125 -18.519531 C 18.203125 -27.542969 22.433594 -30.894531 29.378906 -30.894531 L 34.007812 -30.894531 L 34.007812 -41.910156 L 29.457031 -41.910156 C 23.3125 -41.910156 19.398438 -40.234375 16.683594 -36.324219 L 15.089844 -41.910156 L 6.066406 -41.910156 Z M 6.066406 0 "/></g></g></g><g fill="#1a1a1a" fill-opacity="1"><g transform="translate(223.092293, 271.61853)"><g><path d="M 25.867188 1.117188 C 36.164062 1.117188 44.304688 -4.152344 47.980469 -13.011719 L 35.683594 -13.011719 C 33.6875 -10.21875 30.097656 -8.621094 26.105469 -8.621094 C 20.597656 -8.621094 16.285156 -11.734375 15.167969 -17.484375 L 48.777344 -17.484375 C 49.496094 -32.8125 40.394531 -43.027344 26.023438 -43.027344 C 12.453125 -43.027344 3.113281 -34.007812 3.113281 -20.996094 C 3.113281 -7.902344 12.375 1.117188 25.867188 1.117188 Z M 15.246094 -25.148438 C 16.605469 -30.257812 20.757812 -33.371094 26.105469 -33.371094 C 31.691406 -33.371094 35.683594 -30.257812 37.042969 -25.148438 Z M 15.246094 -25.148438 "/></g></g></g><g fill="#1a1a1a" fill-opacity="1"><g transform="translate(272.507954, 271.61853)"><g><path d="M 6.066406 0 L 18.203125 0 L 18.203125 -59.074219 L 6.066406 -59.074219 Z M 6.066406 0 "/></g></g></g><g fill="#1a1a1a" fill-opacity="1"><g transform="translate(294.381757, 271.61853)"><g><path d="M 6.066406 0 L 18.203125 0 L 18.203125 -59.074219 L 6.066406 -59.074219 Z M 6.066406 0 "/></g></g></g><g fill="#1a1a1a" fill-opacity="1"><g transform="translate(316.255561, 271.61853)"><g><path d="M 20.039062 0.796875 C 26.265625 0.796875 31.375 -1.199219 34.964844 -4.871094 L 36.324219 0 L 45.34375 0 L 45.34375 -25.226562 C 45.34375 -36.324219 37.839844 -43.027344 25.304688 -43.027344 C 14.609375 -43.027344 7.582031 -37.917969 6.066406 -28.820312 L 17.722656 -28.820312 C 18.441406 -31.773438 21.476562 -33.769531 25.386719 -33.769531 C 30.175781 -33.769531 33.449219 -31.054688 33.449219 -26.902344 L 33.449219 -24.988281 L 18.28125 -24.988281 C 9.578125 -24.988281 3.992188 -19.957031 3.992188 -12.214844 C 3.992188 -4.152344 10.136719 0.796875 20.039062 0.796875 Z M 15.964844 -12.691406 C 15.964844 -15.566406 18.359375 -17.402344 22.035156 -17.402344 L 33.527344 -17.402344 C 33.289062 -11.734375 28.898438 -7.902344 22.832031 -7.902344 C 18.679688 -7.902344 15.964844 -9.820312 15.964844 -12.691406 Z M 15.964844 -12.691406 "/></g></g></g><g fill="#1a1a1a" fill-opacity="1"><g transform="translate(101.81295, 309.811127)"><g><path d="M 7.390625 0.140625 C 6.140625 0.140625 4.941406 -0.0546875 3.796875 -0.453125 C 2.648438 -0.859375 1.757812 -1.390625 1.125 -2.046875 L 1.828125 -3.421875 C 2.441406 -2.804688 3.253906 -2.3125 4.265625 -1.9375 C 5.273438 -1.5625 6.316406 -1.375 7.390625 -1.375 C 8.898438 -1.375 10.03125 -1.648438 10.78125 -2.203125 C 11.539062 -2.753906 11.921875 -3.472656 11.921875 -4.359375 C 11.921875 -5.035156 11.710938 -5.570312 11.296875 -5.96875 C 10.890625 -6.375 10.390625 -6.679688 9.796875 -6.890625 C 9.203125 -7.109375 8.375 -7.347656 7.3125 -7.609375 C 6.050781 -7.929688 5.039062 -8.238281 4.28125 -8.53125 C 3.53125 -8.832031 2.882812 -9.285156 2.34375 -9.890625 C 1.8125 -10.503906 1.546875 -11.332031 1.546875 -12.375 C 1.546875 -13.226562 1.769531 -14.003906 2.21875 -14.703125 C 2.664062 -15.398438 3.351562 -15.957031 4.28125 -16.375 C 5.21875 -16.789062 6.375 -17 7.75 -17 C 8.71875 -17 9.660156 -16.863281 10.578125 -16.59375 C 11.503906 -16.332031 12.304688 -15.96875 12.984375 -15.5 L 12.375 -14.078125 C 11.664062 -14.546875 10.910156 -14.894531 10.109375 -15.125 C 9.304688 -15.363281 8.519531 -15.484375 7.75 -15.484375 C 6.269531 -15.484375 5.15625 -15.195312 4.40625 -14.625 C 3.664062 -14.050781 3.296875 -13.316406 3.296875 -12.421875 C 3.296875 -11.742188 3.5 -11.203125 3.90625 -10.796875 C 4.320312 -10.390625 4.835938 -10.078125 5.453125 -9.859375 C 6.066406 -9.640625 6.898438 -9.40625 7.953125 -9.15625 C 9.179688 -8.84375 10.175781 -8.535156 10.9375 -8.234375 C 11.707031 -7.941406 12.351562 -7.492188 12.875 -6.890625 C 13.40625 -6.296875 13.671875 -5.484375 13.671875 -4.453125 C 13.671875 -3.597656 13.441406 -2.820312 12.984375 -2.125 C 12.523438 -1.425781 11.820312 -0.875 10.875 -0.46875 C 9.9375 -0.0625 8.773438 0.140625 7.390625 0.140625 Z M 7.390625 0.140625 "/></g></g></g><g fill="#1a1a1a" fill-opacity="1"><g transform="translate(131.064653, 309.811127)"><g><path d="M 6.015625 -15.3125 L 0.09375 -15.3125 L 0.09375 -16.859375 L 13.71875 -16.859375 L 13.71875 -15.3125 L 7.796875 -15.3125 L 7.796875 0 L 6.015625 0 Z M 6.015625 -15.3125 "/></g></g></g><g fill="#1a1a1a" fill-opacity="1"><g transform="translate(159.329411, 309.811127)"><g><path d="M 10.109375 0.140625 C 8.441406 0.140625 6.929688 -0.226562 5.578125 -0.96875 C 4.222656 -1.71875 3.160156 -2.742188 2.390625 -4.046875 C 1.628906 -5.347656 1.25 -6.804688 1.25 -8.421875 C 1.25 -10.046875 1.628906 -11.507812 2.390625 -12.8125 C 3.160156 -14.113281 4.222656 -15.132812 5.578125 -15.875 C 6.929688 -16.625 8.441406 -17 10.109375 -17 C 11.773438 -17 13.28125 -16.628906 14.625 -15.890625 C 15.96875 -15.148438 17.023438 -14.125 17.796875 -12.8125 C 18.566406 -11.507812 18.953125 -10.046875 18.953125 -8.421875 C 18.953125 -6.804688 18.566406 -5.34375 17.796875 -4.03125 C 17.023438 -2.726562 15.96875 -1.707031 14.625 -0.96875 C 13.28125 -0.226562 11.773438 0.140625 10.109375 0.140625 Z M 10.109375 -1.4375 C 11.441406 -1.4375 12.644531 -1.738281 13.71875 -2.34375 C 14.800781 -2.945312 15.644531 -3.78125 16.25 -4.84375 C 16.863281 -5.914062 17.171875 -7.109375 17.171875 -8.421875 C 17.171875 -9.742188 16.863281 -10.9375 16.25 -12 C 15.644531 -13.070312 14.800781 -13.90625 13.71875 -14.5 C 12.644531 -15.101562 11.441406 -15.40625 10.109375 -15.40625 C 8.773438 -15.40625 7.566406 -15.101562 6.484375 -14.5 C 5.398438 -13.90625 4.550781 -13.070312 3.9375 -12 C 3.320312 -10.9375 3.015625 -9.742188 3.015625 -8.421875 C 3.015625 -7.109375 3.320312 -5.914062 3.9375 -4.84375 C 4.550781 -3.78125 5.398438 -2.945312 6.484375 -2.34375 C 7.566406 -1.738281 8.773438 -1.4375 10.109375 -1.4375 Z M 10.109375 -1.4375 "/></g></g></g><g fill="#1a1a1a" fill-opacity="1"><g transform="translate(193.973199, 309.811127)"><g><path d="M 14.25 0 L 10.40625 -5.421875 C 9.96875 -5.367188 9.515625 -5.34375 9.046875 -5.34375 L 4.53125 -5.34375 L 4.53125 0 L 2.75 0 L 2.75 -16.859375 L 9.046875 -16.859375 C 11.203125 -16.859375 12.890625 -16.34375 14.109375 -15.3125 C 15.328125 -14.28125 15.9375 -12.867188 15.9375 -11.078125 C 15.9375 -9.753906 15.601562 -8.640625 14.9375 -7.734375 C 14.269531 -6.828125 13.320312 -6.175781 12.09375 -5.78125 L 16.203125 0 Z M 9 -6.859375 C 10.675781 -6.859375 11.953125 -7.226562 12.828125 -7.96875 C 13.710938 -8.707031 14.15625 -9.742188 14.15625 -11.078125 C 14.15625 -12.441406 13.710938 -13.488281 12.828125 -14.21875 C 11.953125 -14.945312 10.675781 -15.3125 9 -15.3125 L 4.53125 -15.3125 L 4.53125 -6.859375 Z M 9 -6.859375 "/></g></g></g><g fill="#1a1a1a" fill-opacity="1"><g transform="translate(225.824665, 309.811127)"><g><path d="M 14.65625 -1.546875 L 14.65625 0 L 2.75 0 L 2.75 -16.859375 L 14.296875 -16.859375 L 14.296875 -15.3125 L 4.53125 -15.3125 L 4.53125 -9.3125 L 13.25 -9.3125 L 13.25 -7.796875 L 4.53125 -7.796875 L 4.53125 -1.546875 Z M 14.65625 -1.546875 "/></g></g></g><g fill="#1a1a1a" fill-opacity="1"><g transform="translate(256.376251, 309.811127)"><g><path d="M 7.390625 0.140625 C 6.140625 0.140625 4.941406 -0.0546875 3.796875 -0.453125 C 2.648438 -0.859375 1.757812 -1.390625 1.125 -2.046875 L 1.828125 -3.421875 C 2.441406 -2.804688 3.253906 -2.3125 4.265625 -1.9375 C 5.273438 -1.5625 6.316406 -1.375 7.390625 -1.375 C 8.898438 -1.375 10.03125 -1.648438 10.78125 -2.203125 C 11.539062 -2.753906 11.921875 -3.472656 11.921875 -4.359375 C 11.921875 -5.035156 11.710938 -5.570312 11.296875 -5.96875 C 10.890625 -6.375 10.390625 -6.679688 9.796875 -6.890625 C 9.203125 -7.109375 8.375 -7.347656 7.3125 -7.609375 C 6.050781 -7.929688 5.039062 -8.238281 4.28125 -8.53125 C 3.53125 -8.832031 2.882812 -9.285156 2.34375 -9.890625 C 1.8125 -10.503906 1.546875 -11.332031 1.546875 -12.375 C 1.546875 -13.226562 1.769531 -14.003906 2.21875 -14.703125 C 2.664062 -15.398438 3.351562 -15.957031 4.28125 -16.375 C 5.21875 -16.789062 6.375 -17 7.75 -17 C 8.71875 -17 9.660156 -16.863281 10.578125 -16.59375 C 11.503906 -16.332031 12.304688 -15.96875 12.984375 -15.5 L 12.375 -14.078125 C 11.664062 -14.546875 10.910156 -14.894531 10.109375 -15.125 C 9.304688 -15.363281 8.519531 -15.484375 7.75 -15.484375 C 6.269531 -15.484375 5.15625 -15.195312 4.40625 -14.625 C 3.664062 -14.050781 3.296875 -13.316406 3.296875 -12.421875 C 3.296875 -11.742188 3.5 -11.203125 3.90625 -10.796875 C 4.320312 -10.390625 4.835938 -10.078125 5.453125 -9.859375 C 6.066406 -9.640625 6.898438 -9.40625 7.953125 -9.15625 C 9.179688 -8.84375 10.175781 -8.535156 10.9375 -8.234375 C 11.707031 -7.941406 12.351562 -7.492188 12.875 -6.890625 C 13.40625 -6.296875 13.671875 -5.484375 13.671875 -4.453125 C 13.671875 -3.597656 13.441406 -2.820312 12.984375 -2.125 C 12.523438 -1.425781 11.820312 -0.875 10.875 -0.46875 C 9.9375 -0.0625 8.773438 0.140625 7.390625 0.140625 Z M 7.390625 0.140625 "/></g></g></g><path fill="#4a6cf7" d="M 274.519531 101.507812 C 249.828125 85.835938 220.515625 76.753906 189.082031 76.753906 C 157.640625 76.753906 128.332031 85.832031 103.636719 101.507812 C 87.894531 111.5 74.019531 124.164062 62.664062 138.859375 C 67.027344 137.511719 71.65625 136.785156 76.449219 136.785156 C 85.777344 136.785156 94.496094 139.542969 101.851562 144.292969 C 106.523438 147.316406 110.636719 151.148438 113.992188 155.605469 C 117.347656 151.148438 121.460938 147.316406 126.132812 144.292969 C 133.488281 139.542969 142.207031 136.785156 151.535156 136.785156 C 160.859375 136.785156 169.582031 139.542969 176.933594 144.292969 C 181.613281 147.316406 185.722656 151.148438 189.082031 155.605469 C 192.433594 151.148438 196.542969 147.316406 201.222656 144.292969 C 208.574219 139.542969 217.296875 136.785156 226.621094 136.785156 C 235.949219 136.785156 244.667969 139.542969 252.023438 144.292969 C 256.699219 147.316406 260.808594 151.148438 264.164062 155.605469 C 267.519531 151.148438 271.632812 147.316406 276.308594 144.292969 C 283.664062 139.542969 292.378906 136.785156 301.710938 136.785156 C 306.5 136.785156 311.128906 137.511719 315.492188 138.859375 C 304.136719 124.164062 290.265625 111.5 274.519531 101.507812 " fill-opacity="1" fill-rule="evenodd"/><g clip-path="url(#3d93b58a68)"><path fill="#1a1a1a" d="M 271.726562 95.925781 C 247.03125 80.253906 217.722656 71.175781 186.285156 71.175781 C 154.847656 71.175781 125.539062 80.253906 100.84375 95.925781 C 85.097656 105.921875 71.226562 118.585938 59.871094 133.277344 C 64.234375 131.929688 68.863281 131.203125 73.65625 131.203125 C 82.984375 131.203125 91.699219 133.960938 99.054688 138.710938 C 103.734375 141.734375 107.84375 145.566406 111.199219 150.023438 C 114.554688 145.566406 118.667969 141.734375 123.339844 138.710938 C 130.695312 133.960938 139.414062 131.203125 148.742188 131.203125 C 158.070312 131.203125 166.789062 133.960938 174.140625 138.710938 C 178.820312 141.734375 182.929688 145.566406 186.285156 150.023438 C 189.640625 145.566406 193.753906 141.734375 198.429688 138.710938 C 205.78125 133.960938 214.503906 131.203125 223.828125 131.203125 C 233.15625 131.203125 241.875 133.960938 249.230469 138.710938 C 253.90625 141.734375 258.015625 145.566406 261.371094 150.023438 C 264.726562 145.566406 268.839844 141.734375 273.515625 138.710938 C 280.871094 133.960938 289.589844 131.203125 298.917969 131.203125 C 303.707031 131.203125 308.335938 131.929688 312.699219 133.277344 C 301.34375 118.585938 287.472656 105.921875 271.726562 95.925781 M 186.285156 59.546875 C 220.007812 59.546875 251.449219 69.292969 277.957031 86.113281 C 305.128906 103.363281 327.113281 128.082031 341.027344 157.382812 L 341.300781 157.964844 C 342.65625 160.859375 341.402344 164.308594 338.503906 165.660156 C 335.625 167.007812 332.207031 165.785156 330.828125 162.933594 C 327.878906 156.875 323.296875 151.769531 317.664062 148.226562 C 312.242188 144.808594 305.816406 142.832031 298.914062 142.832031 C 291.863281 142.832031 285.320312 144.886719 279.835938 148.433594 C 274.117188 152.125 269.515625 157.421875 266.648438 163.683594 C 265.316406 166.597656 261.875 167.875 258.964844 166.546875 C 257.644531 165.945312 256.65625 164.910156 256.101562 163.683594 C 253.230469 157.421875 248.628906 152.125 242.910156 148.433594 C 237.425781 144.886719 230.878906 142.832031 223.828125 142.832031 C 216.78125 142.832031 210.234375 144.886719 204.746094 148.433594 C 199.03125 152.125 194.425781 157.421875 191.5625 163.683594 C 190.226562 166.597656 186.789062 167.875 183.875 166.546875 C 182.558594 165.945312 181.570312 164.910156 181.011719 163.683594 C 178.144531 157.421875 173.539062 152.125 167.824219 148.433594 C 162.339844 144.886719 155.792969 142.832031 148.742188 142.832031 C 141.695312 142.832031 135.144531 144.886719 129.660156 148.433594 C 123.945312 152.125 119.339844 157.421875 116.472656 163.683594 C 115.140625 166.597656 111.703125 167.875 108.789062 166.546875 C 107.46875 165.945312 106.484375 164.910156 105.925781 163.683594 C 103.058594 157.421875 98.457031 152.125 92.738281 148.433594 C 87.253906 144.886719 80.707031 142.832031 73.65625 142.832031 C 66.753906 142.832031 60.332031 144.808594 54.90625 148.226562 C 49.277344 151.769531 44.695312 156.875 41.75 162.9375 C 40.359375 165.820312 36.886719 167.03125 34 165.636719 C 31.109375 164.25 29.902344 160.78125 31.292969 157.894531 L 31.546875 157.386719 C 45.460938 128.082031 67.441406 103.363281 94.617188 86.113281 C 121.121094 69.292969 152.566406 59.546875 186.285156 59.546875 Z M 186.285156 59.546875 " fill-opacity="1" fill-rule="nonzero"/></g><g clip-path="url(#99ea94f3a9)"><path fill="#1a1a1a" d="M 180.640625 162.867188 L 191.917969 162.867188 L 191.917969 211.042969 C 191.488281 210.796875 191.042969 210.5625 190.59375 210.34375 C 187.757812 208.957031 184.441406 208.214844 180.640625 208.121094 Z M 180.640625 162.867188 " fill-opacity="1" fill-rule="evenodd"/></g></svg>